<svg width="1024" height="1024" viewBox="0 0 1024 1024" fill="none" xmlns="http://www.w3.org/2000/svg">
<path fill-rule="evenodd" clip-rule="evenodd" d="M451.359 111.503C461.105 109.586 477.241 107.349 487.306 106.71C497.371 106.071 513.187 105.751 522.453 106.231C531.72 106.55 545.779 107.669 553.607 108.467C561.435 109.426 577.412 112.621 588.755 115.497C600.098 118.533 614.956 122.846 621.506 125.243C628.056 127.479 642.115 133.71 652.66 138.822C663.204 143.935 680.458 153.84 691.003 160.87C701.547 167.899 716.245 179.242 723.754 186.112C731.263 192.982 741.328 203.047 746.28 208.159C751.233 213.432 760.499 224.615 766.89 232.923C773.28 241.23 782.866 255.609 788.298 264.875C793.73 274.142 801.558 289.479 805.552 299.224C809.546 308.97 814.978 323.668 817.694 331.976C820.25 340.283 823.605 352.585 825.043 359.135C826.481 365.686 828.398 376.869 829.197 383.899C830.156 390.928 830.795 410.419 830.954 427.035C830.954 443.65 830.635 460.265 829.996 463.78C829.517 467.295 828.398 474.484 827.44 479.756L827.233 480.893C826.283 486.121 824.977 493.316 824.085 497.33C823.286 501.804 819.931 513.147 816.895 522.892C813.7 532.638 807.469 548.774 802.836 558.839C798.363 568.904 790.215 584.401 784.623 593.188C779.032 601.975 771.203 613.478 767.209 618.75C763.215 624.022 755.387 633.288 749.955 639.519C744.523 645.75 733.34 656.614 725.032 663.963C716.884 671.152 702.985 682.176 694.198 688.406C685.411 694.477 667.837 704.862 655.056 711.253C642.275 717.643 624.062 725.631 614.317 728.667C604.571 731.862 589.873 736.016 581.565 737.773C573.258 739.531 557.441 742.087 546.418 743.365C535.394 744.643 519.897 745.761 512.069 745.761C504.24 745.761 488.744 744.643 477.72 743.365C466.696 741.927 451.199 739.371 443.371 737.613C435.543 735.856 421.164 732.022 411.419 728.986C401.673 725.951 383.62 718.442 370.679 711.892C357.898 705.501 342.082 696.714 335.531 692.401C328.981 687.927 318.117 680.099 311.567 674.827C305.017 669.554 293.993 659.809 287.123 653.099C280.094 646.549 269.709 635.046 263.798 627.537C257.727 620.028 248.621 607.407 243.349 599.578C238.076 591.75 230.248 578.33 226.094 570.022C221.94 561.715 216.509 549.413 213.952 542.863C211.396 536.312 206.763 521.934 203.728 510.91C200.692 499.886 196.858 481.833 194.941 470.65C192.704 456.271 191.745 442.691 191.745 425.117C191.745 408.183 192.864 393.804 194.781 381.502C196.378 371.437 199.893 354.502 202.609 343.958C205.325 333.414 210.917 316.479 214.911 306.414C218.905 296.349 225.136 282.609 228.65 276.059C232.165 269.508 239.674 257.207 245.266 248.899C250.857 240.591 259.964 227.97 265.715 220.94C271.307 213.911 282.97 201.609 291.757 193.461C300.384 185.473 311.088 176.047 315.561 172.692C319.875 169.177 329.62 162.308 337.129 157.515C344.638 152.722 355.022 146.491 360.295 143.775C365.567 141.059 375.632 136.266 382.661 133.231C389.691 130.195 404.069 124.763 414.614 121.248C425.158 117.893 441.614 113.42 451.359 111.503ZM456.152 123.645C458.642 123.192 461.253 122.719 463.7 122.276C468.16 121.468 472.075 120.759 473.726 120.45C476.282 120.13 495.773 119.97 516.862 120.29C549.293 120.609 557.761 121.248 571.181 124.124C579.968 126.041 594.346 129.716 603.133 132.432C611.92 134.988 625.66 140.1 633.488 143.455C641.317 146.97 654.737 153.68 663.044 158.473C671.352 163.266 685.411 172.373 694.198 178.763C702.985 185.313 716.884 196.976 725.192 204.964C733.34 212.793 744.523 224.775 749.795 231.325C755.227 237.875 763.694 249.858 768.967 257.686C774.079 265.514 780.789 276.698 783.665 282.449C786.54 288.201 791.972 300.023 795.647 308.81C799.481 317.597 804.594 331.976 807.15 340.763C809.706 349.55 813.221 364.567 815.138 374.313C817.854 388.691 818.493 398.117 818.493 425.437C818.493 453.236 817.854 462.342 814.978 478.957C812.901 489.981 808.588 507.235 805.233 517.3C802.037 527.366 796.126 542.543 792.452 550.851C788.617 559.158 783.026 570.342 779.99 575.614C776.795 580.886 771.523 589.513 767.848 594.785C764.333 600.058 756.345 610.922 750.115 618.75C743.724 626.578 732.221 639.2 724.393 646.549C716.565 653.898 704.423 664.282 697.393 669.554C690.364 674.667 678.062 682.975 670.234 687.927C662.405 692.72 649.784 699.59 642.275 703.105C634.766 706.619 619.269 712.531 607.926 716.205C596.583 720.04 578.21 724.832 567.187 726.909C549.773 730.105 542.264 730.584 509.672 730.584C476.921 730.584 469.732 730.105 453.756 726.909C443.691 724.832 425.637 719.88 413.815 715.886C401.993 712.051 384.738 704.862 375.472 700.229C366.206 695.436 351.508 686.809 342.721 681.057C333.934 675.146 321.792 666.359 315.721 661.407C309.65 656.294 297.348 644.631 288.561 635.365C279.615 625.939 266.674 610.123 259.644 600.217C252.615 590.152 243.349 574.815 238.875 566.028C234.402 557.241 227.213 540.626 223.059 529.283C218.905 517.94 213.473 499.886 211.236 489.342C207.242 471.289 207.083 467.614 206.923 425.437C206.923 384.058 207.242 379.425 210.757 363.928C212.834 354.662 216.988 339.644 220.023 330.378C223.059 321.112 230.088 303.857 235.84 292.035C241.591 280.212 248.94 266.473 252.136 261.68C255.331 256.887 261.881 247.461 266.674 240.911C271.467 234.361 285.526 218.864 297.828 206.562C313.964 190.426 324.987 181.16 337.129 173.171C346.395 167.1 361.093 158.313 369.88 153.68C378.667 149.047 392.407 142.657 400.235 139.621C408.064 136.586 421.164 132.272 428.992 130.195C436.821 127.958 449.122 125.083 456.152 123.645Z" fill="#E65137"/>
<path fill-rule="evenodd" clip-rule="evenodd" d="M185.035 822.128C188.071 814.459 190.307 811.104 192.544 810.625C194.302 810.306 195.899 809.986 196.059 809.826C196.378 809.826 198.296 810.465 200.532 811.264C203.408 812.382 205.165 815.098 206.763 820.53C208.041 824.684 214.272 842.737 220.503 860.791C226.733 878.844 233.284 897.856 234.881 903.128C236.639 908.4 238.076 913.193 238.076 913.992C238.076 914.631 236 915.11 233.284 915.11C230.088 915.11 227.692 913.992 226.254 911.595C224.976 909.518 222.26 903.607 220.343 898.335C218.426 893.063 215.71 887.79 214.272 886.672C212.514 885.394 206.124 884.755 194.621 884.755C181.68 884.755 177.047 885.394 175.13 887.151C173.692 888.43 172.095 892.583 171.615 896.418C170.976 900.092 169.538 905.844 168.42 909.199C166.343 914.471 165.544 915.11 160.592 915.11C156.757 915.11 155 914.311 155 912.714C155 911.435 157.876 902.648 161.231 893.222C164.746 883.637 170.497 866.223 174.171 854.4C177.846 842.578 182.799 828.039 185.035 822.128ZM191.426 837.944C189.988 843.057 186.793 853.441 184.237 861.11C181.84 868.779 180.402 875.649 181.041 876.288C181.84 876.927 188.39 877.566 195.739 877.566C203.088 877.566 209.639 876.927 210.438 876.288C211.077 875.649 210.438 869.897 208.84 863.507C207.083 857.116 203.887 847.051 201.651 840.98C199.254 834.909 196.538 829.637 195.58 829.317C194.621 828.998 192.704 832.832 191.426 837.944Z" fill="#E65137"/>
<path d="M452.477 813.022C447.205 814.939 442.892 817.974 440.975 821.01C439.217 823.566 437.3 829.477 436.661 834.11C435.862 840.98 436.182 843.376 438.898 848.01C440.815 851.045 444.969 855.518 448.324 857.755C451.838 859.992 460.625 864.785 468.134 868.459C475.643 871.974 483.631 876.447 486.187 878.205C488.584 880.122 490.98 883.796 491.459 886.832C492.099 890.027 491.459 893.862 489.862 897.217C488.264 900.252 485.069 903.288 481.714 904.725C478.678 906.004 472.288 907.122 467.815 907.122C463.182 907.122 456.951 906.483 454.235 905.524C451.359 904.725 448.324 902.489 447.365 900.731C446.406 898.974 445.767 895.299 445.767 892.743C445.767 888.43 445.288 887.95 440.975 887.95H436.182L436.981 910.956C449.442 915.589 457.909 917.347 464.14 917.826C470.371 918.305 478.359 917.826 482.193 916.867C485.868 915.909 491.14 913.193 494.016 910.796C496.732 908.24 499.927 903.927 501.205 901.211C502.323 898.335 503.282 892.743 503.282 888.749C503.282 884.755 502.323 879.643 501.045 877.246C499.767 874.69 496.732 870.856 494.175 868.459C491.779 866.223 482.832 860.95 474.525 856.956C466.217 852.802 456.951 847.69 454.235 845.613C449.762 842.258 448.963 840.501 448.963 835.229C448.963 830.276 449.921 828.039 453.436 825.163C456.312 822.607 460.785 821.01 467.335 820.371C472.608 819.732 478.838 819.732 481.235 820.53C484.749 821.649 485.868 823.406 487.146 829.317C488.743 836.187 489.223 836.826 493.696 836.826H498.489C498.649 815.897 498.329 815.098 494.175 813.022C491.619 811.743 483.471 810.465 475.323 810.146C463.661 809.826 459.347 810.306 452.477 813.022Z" fill="#E65137"/>
<path fill-rule="evenodd" clip-rule="evenodd" d="M617.033 868.299C616.713 843.536 617.033 820.211 617.512 816.536L618.471 809.667H636.364C646.269 809.667 656.813 810.465 659.849 811.424C662.884 812.542 667.837 814.939 670.713 817.016C673.429 819.092 677.583 823.566 679.659 826.921C681.736 830.116 684.612 836.826 686.05 841.619C687.488 846.412 688.606 855.838 688.606 862.388C688.606 868.939 687.328 879.004 685.73 884.755C684.133 890.507 680.778 897.856 678.222 901.211C675.186 905.205 669.594 909.199 663.044 912.394C653.618 917.027 651.222 917.506 637.163 917.506C626.618 917.506 621.027 916.867 619.589 915.429C617.991 913.832 617.352 902.808 617.033 868.299ZM629.175 860.471C629.015 824.524 629.175 822.447 632.05 821.01C633.648 820.051 639.08 819.891 643.873 820.371C648.666 820.85 655.376 822.607 658.731 824.205C661.926 825.962 665.92 829.158 667.677 831.714C669.275 834.11 671.512 838.903 672.63 842.418C673.748 846.252 674.228 855.518 673.908 865.743C673.429 881.24 673.109 883.317 668.636 890.506C665.76 895.14 661.127 899.773 657.453 901.85C652.66 904.566 648.346 905.524 641.157 905.524C632.05 905.524 631.092 905.205 630.293 902.009C629.814 899.932 629.334 881.24 629.175 860.471Z" fill="#E65137"/>
<path d="M736.215 810.945L702.985 811.424V835.388C711.772 835.388 712.571 834.749 712.571 831.394C712.571 829.158 713.369 825.962 714.168 824.205C715.446 821.489 717.363 821.01 725.352 821.01C731.742 821.01 735.097 821.649 735.417 822.927C735.576 824.045 735.417 842.897 734.937 864.944L734.138 904.885C720.559 906.323 719.76 906.802 719.76 910.477V914.471C763.535 915.11 763.694 915.11 763.694 911.595C763.694 908.56 762.576 907.761 756.984 906.802C753.15 906.163 749.635 904.725 748.837 903.607C748.198 902.489 747.878 883.637 748.357 861.749C748.837 839.702 749.156 821.489 749.156 821.329C749.316 821.169 753.949 821.01 759.7 821.01C767.529 821.01 770.245 821.489 770.884 823.406C771.363 824.684 771.683 827.879 771.683 830.595C771.683 834.43 772.322 835.388 775.357 835.388C778.393 835.388 779.032 834.27 780.15 827.72C780.789 823.566 781.109 818.294 780.949 815.897C780.629 812.382 779.671 811.584 774.878 811.104C771.842 810.785 754.428 810.785 736.215 810.945Z" fill="#E65137"/>
<path d="M795.966 855.838C795.487 819.891 795.647 814.459 797.884 812.382C799.321 810.945 801.718 810.306 803.315 810.945C804.753 811.424 806.511 812.702 807.15 813.661C807.949 814.619 808.428 831.554 808.428 851.365C808.588 883.637 808.907 887.95 811.623 894.021C813.381 897.696 816.416 901.85 818.493 903.128C820.41 904.406 825.203 905.844 829.197 906.483C834.15 907.282 838.463 906.802 842.777 905.045C846.611 903.447 850.445 900.412 852.363 897.217C855.238 892.583 855.558 888.749 856.037 856.956C856.197 837.465 856.836 819.412 857.155 816.536C857.954 812.063 858.593 811.424 862.747 811.424C867.38 811.424 867.54 811.584 868.658 820.53C869.138 825.643 869.138 844.175 868.499 861.749C867.7 887.471 866.901 894.82 864.505 900.092C862.907 903.607 859.871 907.921 857.794 909.838C855.718 911.915 850.765 914.631 846.771 915.909C842.777 917.347 836.706 918.465 833.191 918.465C829.676 918.305 823.605 917.347 819.611 916.228C815.617 915.11 810.345 912.714 807.949 911.116C805.392 909.358 801.718 905.524 799.961 902.489C796.606 897.217 796.446 894.341 795.966 855.838Z" fill="#E65137"/>
<path d="M250.857 814.619C250.857 816.377 251.496 817.974 252.135 818.453C252.775 818.773 259.165 819.732 266.514 820.371L279.615 821.808V905.684C262.999 905.684 256.449 906.003 254.532 906.483C251.976 906.962 250.857 908.4 250.857 911.276C250.857 913.992 251.976 915.43 254.532 915.909C256.449 916.228 272.266 916.069 289.68 915.429L321.153 914.471V905.684H293.993C292.715 897.536 292.396 878.684 292.715 858.554L293.194 821.808C302.185 821.295 307.975 820.781 311.892 820.433L311.898 820.433L311.9 820.432L311.925 820.43C312.867 820.347 313.7 820.273 314.443 820.211C320.354 819.412 321.153 818.773 321.153 815.418V811.424C251.976 811.424 250.857 811.424 250.857 814.619Z" fill="#E65137"/>
<path d="M342.721 904.406C342.721 898.974 342.88 875.649 343.2 852.962L343.52 811.424H348.312C351.348 811.424 354.383 812.702 356.301 814.939C358.058 816.856 359.496 819.092 359.496 819.732C359.496 820.371 361.892 824.684 364.768 829.477C367.644 834.11 371.478 839.862 373.555 842.258C375.472 844.495 378.028 846.252 379.147 845.933C380.265 845.613 386.176 837.625 392.247 828.199C402.791 812.223 403.75 811.264 413.016 812.223V914.471L408.223 913.992C405.667 913.672 403.111 913.193 402.632 912.714C402.152 912.074 401.993 896.897 402.312 878.684C402.632 860.471 402.152 843.536 400.075 836.187L395.602 844.175C393.046 848.489 388.732 855.518 386.016 859.672C382.502 865.264 380.105 867.181 377.868 866.862C375.951 866.702 371.318 861.27 365.567 852.483C360.454 844.814 355.661 838.584 354.703 838.584C353.744 838.584 353.425 848.01 354.224 866.063C354.703 881.24 354.703 898.495 353.105 915.27L342.721 914.471V904.406Z" fill="#E65137"/>
<path d="M536.193 869.737C534.755 871.175 533.637 872.613 533.637 872.933C533.637 873.412 534.755 874.69 536.193 876.128C537.95 877.885 542.903 878.524 559.199 878.524C575.335 878.524 580.447 877.885 582.364 876.128C583.802 874.69 584.92 872.613 584.92 871.335C584.92 869.897 583.323 868.459 581.246 868.14C579.329 867.66 568.944 867.341 558.24 867.341C542.743 867.341 538.27 867.82 536.193 869.737Z" fill="#E65137"/>
<path fill-rule="evenodd" clip-rule="evenodd" d="M369.72 230.526C367.004 231.645 363.649 234.361 362.211 236.438C360.774 238.514 359.016 242.668 358.537 245.704C357.898 248.739 358.377 254.011 359.336 257.366C360.294 260.881 362.851 264.396 365.567 265.994C367.51 267.16 369.349 268.431 370.23 269.041C370.435 269.182 370.588 269.288 370.679 269.349C371.158 269.668 371.797 291.875 372.277 318.715L373.075 367.443C379.306 372.236 381.383 373.674 381.862 373.674C382.342 373.514 384.099 372.555 385.856 371.277C388.572 369.2 388.732 368.402 387.134 365.686C385.537 363.129 385.058 350.348 385.058 316.479V270.467C392.407 264.875 395.762 260.881 397.2 258.165C399.117 254.491 399.596 250.656 398.957 245.704C398.318 241.71 396.72 237.236 395.123 235.479C393.525 233.881 389.85 231.485 387.134 230.367C384.259 229.088 380.265 228.13 378.348 228.13C376.271 228.29 372.436 229.248 369.72 230.526ZM368.763 249.218C368.603 246.822 369.402 243.946 370.68 242.828C371.958 241.709 375.153 240.911 377.709 240.911C380.425 240.751 383.621 241.709 384.739 242.828C385.857 243.946 386.496 246.982 386.337 249.698C386.017 253.053 384.579 254.97 381.544 256.408C377.869 258.165 376.431 258.005 373.076 256.088C370.52 254.491 368.922 252.094 368.763 249.218Z" fill="#E65137"/>
<path fill-rule="evenodd" clip-rule="evenodd" d="M481.075 235.639C478.04 237.236 474.365 241.071 472.767 244.585C471.01 247.781 469.732 252.574 469.732 255.29C469.732 258.006 470.371 261.68 471.17 263.757C471.969 265.674 475.164 269.988 478.359 273.343L484.111 279.254V331.976C494.176 336.449 494.495 336.289 495.613 333.094C496.093 331.177 496.572 317.917 496.732 303.698C496.892 278.934 497.051 277.497 500.566 273.982C502.483 272.065 505.678 268.23 507.755 265.674C509.992 262.639 511.43 258.804 511.27 255.29C511.27 252.254 509.832 247.301 508.075 244.585C506.318 241.71 503.282 238.195 501.365 236.917C499.288 235.639 495.134 234.201 492.099 233.722C488.424 233.083 484.59 233.881 481.075 235.639ZM482.194 257.846C480.437 254.491 480.597 253.212 482.993 249.857C484.91 246.982 487.147 245.704 490.502 245.704C493.857 245.704 496.094 246.982 498.171 249.857C500.407 253.212 500.567 254.491 498.969 257.846C497.851 259.922 495.295 262.159 493.378 262.638C491.301 263.277 488.425 263.277 486.987 262.638C485.39 262.159 483.153 259.922 482.194 257.846Z" fill="#E65137"/>
<path fill-rule="evenodd" clip-rule="evenodd" d="M534.436 244.106C535.874 241.23 539.548 238.035 543.702 236.118C547.377 234.361 551.53 232.923 552.809 232.923C554.087 232.923 558.081 234.361 561.596 235.798C566.069 237.875 568.945 240.591 571.022 245.065C573.098 249.538 573.737 253.372 573.098 258.485C572.459 264.396 571.021 266.792 559.519 276.858L559.039 310.727C558.72 329.26 557.921 344.917 557.282 345.396C556.483 345.875 554.406 345.396 552.489 344.118C550.412 342.84 548.335 340.124 547.696 338.047C547.057 336.13 546.418 321.591 546.418 277.656L539.229 270.946C532.838 264.716 532.199 263.437 532.039 256.568C532.039 252.254 533.158 246.822 534.436 244.106ZM546.419 248.899C544.342 250.976 543.543 253.212 544.182 255.769C544.662 257.686 546.259 260.242 547.857 261.36C549.295 262.479 552.17 263.277 554.407 262.958C556.644 262.638 559.36 260.721 560.798 258.325C563.034 254.491 562.874 253.692 560.478 249.857C558.561 247.301 556.164 245.704 553.608 245.704C551.372 245.704 548.176 247.141 546.419 248.899Z" fill="#E65137"/>
<path fill-rule="evenodd" clip-rule="evenodd" d="M639.879 237.556C637.163 239.154 633.808 242.349 632.211 244.426C630.453 246.822 629.495 250.976 629.495 256.088C629.654 260.562 630.453 265.674 631.572 267.591C632.69 269.508 635.406 272.544 637.962 274.301L642.276 277.656C642.276 370.479 642.116 371.118 638.601 374.792C636.258 377.135 635.619 378.893 636.684 380.064C637.643 380.863 640.678 381.342 643.714 381.183C647.548 380.863 650.104 379.266 652.501 376.23C655.696 371.916 655.856 369.68 656.335 324.627L656.654 277.656C666.879 268.39 668.317 265.674 668.956 260.082C669.435 255.29 668.956 250.816 667.199 246.982C665.761 243.627 663.045 239.793 661.128 238.514C659.051 237.236 654.577 235.639 651.063 235.159C646.27 234.52 643.394 235.159 639.879 237.556ZM640.359 259.443C638.602 256.088 638.762 254.81 641.158 251.455C642.916 248.739 645.472 247.301 648.348 247.301C650.744 247.141 653.62 248.1 654.738 249.218C655.856 250.337 656.496 253.692 656.336 256.727C656.016 259.763 654.738 262.798 653.46 263.757C652.182 264.556 649.146 264.875 646.75 264.236C644.194 263.757 641.318 261.52 640.359 259.443Z" fill="#E65137"/>
<path fill-rule="evenodd" clip-rule="evenodd" d="M316.679 283.568C318.436 281.011 321.472 278.455 323.389 277.656C325.147 276.858 329.62 276.218 333.135 276.218C336.809 276.218 341.762 277.497 344.797 279.254C347.513 281.011 350.549 283.887 351.507 285.645C352.466 287.402 353.105 292.674 353.105 297.147C352.945 305.136 352.626 305.934 338.567 318.396L338.886 369.52C339.206 416.33 339.046 420.644 336.649 421.123C335.052 421.283 332.336 419.206 330.419 416.33C326.904 411.218 326.744 409.461 325.147 318.076L319.874 313.443C316.999 310.887 313.803 306.254 312.845 303.218C311.886 300.183 311.726 295.55 312.206 292.834C312.845 290.118 314.762 285.964 316.679 283.568ZM326.745 291.236C324.668 293.313 322.911 295.869 322.751 296.828C322.751 297.626 324.508 300.183 326.745 302.419C328.982 304.656 331.857 306.413 333.136 306.413C334.414 306.413 336.97 304.976 338.727 303.218C340.485 301.461 341.922 298.585 341.922 296.828C341.922 295.07 340.005 292.195 337.609 290.437C335.053 288.52 332.496 287.082 331.857 287.242C331.218 287.242 328.822 288.999 326.745 291.236Z" fill="#E65137"/>
<path fill-rule="evenodd" clip-rule="evenodd" d="M686.21 279.094C683.494 280.852 680.14 283.887 678.542 285.964C676.785 288.36 675.826 292.514 675.826 297.946C675.826 305.615 676.465 307.053 682.216 312.804L688.607 319.195C690.364 397.319 690.205 404.189 687.968 410.739C686.051 416.171 685.891 419.366 687.009 422.242C687.968 424.478 689.086 426.236 689.885 426.236C690.524 426.236 692.601 424.638 694.518 422.721C696.435 420.644 698.832 416.81 699.79 414.254C700.909 411.218 701.548 393.964 701.388 365.047V320.792C715.128 307.053 715.767 305.775 715.767 298.426C715.767 292.674 714.808 289 712.252 285.325C710.175 282.609 706.181 279.254 703.465 278.136C700.589 277.017 696.595 276.059 694.678 276.059C692.601 276.059 688.767 277.497 686.21 279.094ZM688.288 292.834C688.927 291.875 690.844 290.437 692.442 289.319C694.2 288.36 696.276 287.881 697.235 288.36C698.194 288.84 700.271 290.437 701.868 291.875C703.466 293.313 704.584 295.869 704.584 297.626C704.584 299.384 703.306 302.1 701.708 303.697C700.271 305.295 697.555 306.413 695.797 306.413C694.04 306.413 691.324 305.135 689.726 303.538C688.129 302.1 687.01 299.384 687.01 297.626C687.01 295.869 687.649 293.632 688.288 292.834Z" fill="#E65137"/>
<path d="M427.395 342.68C430.909 340.922 436.022 338.846 438.578 338.206C441.134 337.408 449.442 337.248 456.951 337.567C467.974 338.206 471.969 339.165 477.72 342.68C481.714 344.917 486.507 348.112 488.584 349.869C491.926 352.734 492.256 352.586 499.68 349.269L499.767 349.23C505.039 346.674 510.312 345.715 517.661 345.556C526.288 345.556 529.962 346.514 538.43 350.668C544.98 353.863 549.613 357.218 550.891 359.774C552.489 363.129 553.607 363.769 557.282 363.129C558.274 362.931 559.869 362.623 561.737 362.262L561.74 362.262C564.384 361.751 567.575 361.135 570.382 360.573C576.933 359.135 581.406 359.135 587.956 360.573C592.749 361.532 600.737 364.727 605.53 367.443C611.282 370.958 616.394 375.911 620.868 382.301C624.702 387.573 629.015 392.366 630.613 393.005C632.211 393.644 636.045 394.443 639.08 394.922C642.116 395.402 649.146 398.757 654.737 402.271C663.684 408.023 665.282 409.94 671.033 421.922C676.145 432.147 679.181 436.301 685.092 440.614C690.364 444.449 694.039 449.082 697.394 455.792C699.95 461.064 702.347 468.573 702.666 472.567C703.145 476.561 702.187 483.75 700.909 488.543C699.151 494.774 696.116 499.727 690.684 505.798C686.37 510.591 680.619 515.064 677.424 516.182C674.069 517.301 661.447 518.099 620.708 518.099L619.909 512.508C619.27 509.472 617.832 505.318 616.554 503.401C615.276 501.324 610.962 498.289 606.808 496.531C602.495 494.774 599.14 492.857 599.14 492.218C599.14 491.419 600.098 488.703 601.536 486.147C602.814 483.591 603.933 479.437 603.933 477.04C603.933 474.484 602.974 470.171 601.696 467.455C600.578 464.579 594.666 457.39 588.595 451.478C582.524 445.727 574.856 439.816 571.661 438.378C566.229 436.141 564.791 436.141 558.081 438.218C552.01 439.975 549.933 439.975 548.335 438.538C547.217 437.419 546.258 435.662 546.418 434.703C546.418 433.585 543.862 430.07 535.235 421.443H512.548C494.815 421.443 488.903 421.922 486.187 423.839C484.111 425.117 481.075 429.431 479.318 433.425C476.282 440.295 475.963 440.614 471.01 439.496C468.134 438.697 462.063 438.218 457.75 438.218C452.158 438.218 448.483 439.177 445.608 441.413C443.371 443.171 436.661 449.881 430.91 456.271C421.484 466.496 420.205 468.573 420.205 474.165C420.205 477.679 421.164 482.952 422.442 485.827C423.72 488.543 424.199 491.739 423.56 492.857C423.081 493.815 420.844 495.094 418.608 495.573C416.371 496.052 412.697 498.608 410.46 501.005C408.063 503.401 405.347 508.034 404.389 511.389C402.791 516.662 401.992 517.46 396.72 518.099C393.365 518.579 380.904 518.259 369.081 517.46C349.59 516.023 346.874 515.543 340.484 511.389C336.17 508.673 331.857 503.881 328.981 498.928C326.584 494.614 323.868 487.425 323.07 482.952C322.271 477.839 322.271 471.768 323.389 466.017C324.348 460.745 327.223 454.035 329.939 450.04C332.655 446.046 338.407 440.934 343.04 438.218C350.07 434.224 351.507 432.467 352.306 427.833C352.785 424.798 354.383 418.727 355.661 414.254C357.099 409.94 359.815 403.869 361.732 401.153C363.649 398.277 368.922 393.804 373.555 391.088C378.028 388.532 385.856 385.337 390.649 384.378C398.478 382.461 399.596 381.822 400.395 377.508C401.034 374.952 402.791 369.999 404.389 366.804C406.146 363.449 410.46 357.378 414.294 353.384C417.969 349.23 423.88 344.437 427.395 342.68Z" fill="#E65137"/>
<path fill-rule="evenodd" clip-rule="evenodd" d="M498.968 438.218C494.974 439.975 493.217 442.212 491.779 447.165C490.661 450.839 488.264 454.833 486.507 455.952C484.75 457.23 481.075 458.668 478.519 459.307C475.164 459.946 471.969 459.307 467.815 456.75C464.46 454.993 460.785 453.395 459.667 453.395C458.389 453.395 452.957 457.39 447.685 462.182C441.081 468.04 437.779 472.194 437.779 474.644C437.779 476.561 439.377 481.354 441.134 485.348C444.33 492.218 444.489 492.857 441.933 499.407C439.537 505.638 438.738 506.277 430.59 508.514C424.998 509.952 421.483 512.028 420.844 513.786C420.365 515.224 419.566 521.934 419.087 528.484C418.448 536.153 418.768 541.744 420.046 544.141C421.164 546.218 423.88 547.975 427.075 548.614C429.791 549.093 433.306 549.732 434.584 550.052C435.862 550.372 438.259 553.247 439.856 556.283C441.294 559.478 442.572 563.472 442.572 565.229C442.572 566.987 441.134 570.342 439.377 572.898C437.46 575.295 436.182 578.969 436.182 581.206C436.182 583.922 439.377 588.235 446.566 595.265C452.318 600.697 458.229 605.17 459.827 605.17C461.264 605.33 464.46 603.892 467.016 601.975C469.412 600.217 473.087 598.78 475.324 598.78C477.56 598.78 481.714 599.738 484.59 600.857C488.903 602.614 490.022 604.212 491.619 610.922C492.738 615.235 494.495 619.709 495.613 620.827C497.051 622.265 502.164 622.744 513.347 622.425C525.17 622.105 529.323 621.306 530.442 619.549C531.241 618.271 532.359 614.436 532.838 611.241C533.317 607.407 534.915 604.212 537.312 602.774C539.229 601.496 543.383 599.898 546.418 599.419C550.572 598.62 553.448 599.099 558.081 601.655C561.276 603.573 565.27 604.851 566.868 604.371C568.306 604.052 574.057 598.939 579.649 593.188C585.081 587.437 589.554 581.845 589.554 580.886C589.554 579.768 587.477 576.093 585.081 572.738C580.927 566.827 580.767 566.508 583.163 559.318C584.442 555.324 586.359 551.49 587.158 550.691C588.116 549.892 591.631 548.774 595.146 548.295C598.66 547.656 602.495 546.377 603.613 545.419C605.051 544.301 605.69 539.508 605.53 530.88C605.53 523.851 605.211 516.502 604.731 514.585C604.092 511.869 602.495 510.591 598.021 509.952C594.666 509.312 590.672 508.194 589.234 507.555C587.637 506.756 585.24 503.881 583.962 501.324C582.684 498.768 581.566 494.614 581.566 492.218C581.566 489.662 583.163 485.188 585.081 482.153C586.838 478.958 587.956 475.123 587.477 473.366C586.998 471.608 582.045 466.336 576.453 461.543C569.584 455.472 565.11 452.916 562.394 452.916C560.158 453.076 556.962 454.674 555.205 456.431C553.448 458.188 550.412 459.786 548.495 459.786C546.418 459.786 542.264 458.668 539.229 457.39C536.193 456.111 532.998 453.395 532.199 451.478C531.4 449.401 530.282 445.887 529.803 443.49C529.164 440.774 527.246 438.378 524.85 437.419C522.613 436.461 517.022 435.822 512.548 435.822C507.915 435.981 501.684 436.94 498.968 438.218ZM496.094 489.342C490.821 491.579 484.111 495.732 481.236 498.608C478.36 501.324 474.526 507.555 472.928 512.188C471.171 516.661 469.733 523.531 469.733 527.365C469.733 531.04 470.851 537.75 472.449 542.064C474.046 547.016 477.721 552.608 482.034 556.922C485.869 560.596 491.94 565.069 495.774 566.827C500.088 568.904 505.839 570.022 512.07 570.022C518.301 570.022 524.052 568.904 528.525 566.827C532.2 565.069 538.591 560.596 542.585 556.922C548.176 551.649 550.413 547.975 552.33 541.265C553.928 535.833 554.567 529.123 554.088 523.691C553.608 518.898 551.851 512.028 550.093 508.513C548.336 504.999 544.022 499.726 540.667 496.851C537.312 494.135 530.123 490.3 524.851 488.543C519.579 486.786 513.028 485.348 510.472 485.348C507.916 485.348 501.366 487.265 496.094 489.342Z" fill="#E65137"/>
<path fill-rule="evenodd" clip-rule="evenodd" d="M451.359 111.503C461.105 109.586 477.241 107.349 487.306 106.71C497.371 106.071 513.187 105.751 522.453 106.231C531.72 106.55 545.779 107.669 553.607 108.467C561.435 109.426 577.412 112.621 588.755 115.497C600.098 118.533 614.956 122.846 621.506 125.243C628.056 127.479 642.115 133.71 652.66 138.822C663.204 143.935 680.458 153.84 691.003 160.87C701.547 167.899 716.245 179.242 723.754 186.112C731.263 192.982 741.328 203.047 746.28 208.159C751.233 213.432 760.499 224.615 766.89 232.923C773.28 241.23 782.866 255.609 788.298 264.875C793.73 274.142 801.558 289.479 805.552 299.224C809.546 308.97 814.978 323.668 817.694 331.976C820.25 340.283 823.605 352.585 825.043 359.135C826.481 365.686 828.398 376.869 829.197 383.899C830.156 390.928 830.795 410.419 830.954 427.035C830.954 443.65 830.635 460.265 829.996 463.78C829.517 467.295 828.398 474.484 827.44 479.756L827.233 480.893C826.283 486.121 824.977 493.316 824.085 497.33C823.286 501.804 819.931 513.147 816.895 522.892C813.7 532.638 807.469 548.774 802.836 558.839C798.363 568.904 790.215 584.401 784.623 593.188C779.032 601.975 771.203 613.478 767.209 618.75C763.215 624.022 755.387 633.288 749.955 639.519C744.523 645.75 733.34 656.614 725.032 663.963C716.884 671.152 702.985 682.176 694.198 688.406C685.411 694.477 667.837 704.862 655.056 711.253C642.275 717.643 624.062 725.631 614.317 728.667C604.571 731.862 589.873 736.016 581.565 737.773C573.258 739.531 557.441 742.087 546.418 743.365C535.394 744.643 519.897 745.761 512.069 745.761C504.24 745.761 488.744 744.643 477.72 743.365C466.696 741.927 451.199 739.371 443.371 737.613C435.543 735.856 421.164 732.022 411.419 728.986C401.673 725.951 383.62 718.442 370.679 711.892C357.898 705.501 342.082 696.714 335.531 692.401C328.981 687.927 318.117 680.099 311.567 674.827C305.017 669.554 293.993 659.809 287.123 653.099C280.094 646.549 269.709 635.046 263.798 627.537C257.727 620.028 248.621 607.407 243.349 599.578C238.076 591.75 230.248 578.33 226.094 570.022C221.94 561.715 216.509 549.413 213.952 542.863C211.396 536.312 206.763 521.934 203.728 510.91C200.692 499.886 196.858 481.833 194.941 470.65C192.704 456.271 191.745 442.691 191.745 425.117C191.745 408.183 192.864 393.804 194.781 381.502C196.378 371.437 199.893 354.502 202.609 343.958C205.325 333.414 210.917 316.479 214.911 306.414C218.905 296.349 225.136 282.609 228.65 276.059C232.165 269.508 239.674 257.207 245.266 248.899C250.857 240.591 259.964 227.97 265.715 220.94C271.307 213.911 282.97 201.609 291.757 193.461C300.384 185.473 311.088 176.047 315.561 172.692C319.875 169.177 329.62 162.308 337.129 157.515C344.638 152.722 355.022 146.491 360.295 143.775C365.567 141.059 375.632 136.266 382.661 133.231C389.691 130.195 404.069 124.763 414.614 121.248C425.158 117.893 441.614 113.42 451.359 111.503ZM456.152 123.645C458.642 123.192 461.253 122.719 463.7 122.276C468.16 121.468 472.075 120.759 473.726 120.45C476.282 120.13 495.773 119.97 516.862 120.29C549.293 120.609 557.761 121.248 571.181 124.124C579.968 126.041 594.346 129.716 603.133 132.432C611.92 134.988 625.66 140.1 633.488 143.455C641.317 146.97 654.737 153.68 663.044 158.473C671.352 163.266 685.411 172.373 694.198 178.763C702.985 185.313 716.884 196.976 725.192 204.964C733.34 212.793 744.523 224.775 749.795 231.325C755.227 237.875 763.694 249.858 768.967 257.686C774.079 265.514 780.789 276.698 783.665 282.449C786.54 288.201 791.972 300.023 795.647 308.81C799.481 317.597 804.594 331.976 807.15 340.763C809.706 349.55 813.221 364.567 815.138 374.313C817.854 388.691 818.493 398.117 818.493 425.437C818.493 453.236 817.854 462.342 814.978 478.957C812.901 489.981 808.588 507.235 805.233 517.3C802.037 527.366 796.126 542.543 792.452 550.851C788.617 559.158 783.026 570.342 779.99 575.614C776.795 580.886 771.523 589.513 767.848 594.785C764.333 600.058 756.345 610.922 750.115 618.75C743.724 626.578 732.221 639.2 724.393 646.549C716.565 653.898 704.423 664.282 697.393 669.554C690.364 674.667 678.062 682.975 670.234 687.927C662.405 692.72 649.784 699.59 642.275 703.105C634.766 706.619 619.269 712.531 607.926 716.205C596.583 720.04 578.21 724.832 567.187 726.909C549.773 730.105 542.264 730.584 509.672 730.584C476.921 730.584 469.732 730.105 453.756 726.909C443.691 724.832 425.637 719.88 413.815 715.886C401.993 712.051 384.738 704.862 375.472 700.229C366.206 695.436 351.508 686.809 342.721 681.057C333.934 675.146 321.792 666.359 315.721 661.407C309.65 656.294 297.348 644.631 288.561 635.365C279.615 625.939 266.674 610.123 259.644 600.217C252.615 590.152 243.349 574.815 238.875 566.028C234.402 557.241 227.213 540.626 223.059 529.283C218.905 517.94 213.473 499.886 211.236 489.342C207.242 471.289 207.083 467.614 206.923 425.437C206.923 384.058 207.242 379.425 210.757 363.928C212.834 354.662 216.988 339.644 220.023 330.378C223.059 321.112 230.088 303.857 235.84 292.035C241.591 280.212 248.94 266.473 252.136 261.68C255.331 256.887 261.881 247.461 266.674 240.911C271.467 234.361 285.526 218.864 297.828 206.562C313.964 190.426 324.987 181.16 337.129 173.171C346.395 167.1 361.093 158.313 369.88 153.68C378.667 149.047 392.407 142.657 400.235 139.621C408.064 136.586 421.164 132.272 428.992 130.195C436.821 127.958 449.122 125.083 456.152 123.645Z" fill="#E65137"/>
<path fill-rule="evenodd" clip-rule="evenodd" d="M185.035 822.128C188.071 814.459 190.307 811.104 192.544 810.625C194.302 810.306 195.899 809.986 196.059 809.826C196.378 809.826 198.296 810.465 200.532 811.264C203.408 812.382 205.165 815.098 206.763 820.53C208.041 824.684 214.272 842.737 220.503 860.791C226.733 878.844 233.284 897.856 234.881 903.128C236.639 908.4 238.076 913.193 238.076 913.992C238.076 914.631 236 915.11 233.284 915.11C230.088 915.11 227.692 913.992 226.254 911.595C224.976 909.518 222.26 903.607 220.343 898.335C218.426 893.063 215.71 887.79 214.272 886.672C212.514 885.394 206.124 884.755 194.621 884.755C181.68 884.755 177.047 885.394 175.13 887.151C173.692 888.43 172.095 892.583 171.615 896.418C170.976 900.092 169.538 905.844 168.42 909.199C166.343 914.471 165.544 915.11 160.592 915.11C156.757 915.11 155 914.311 155 912.714C155 911.435 157.876 902.648 161.231 893.222C164.746 883.637 170.497 866.223 174.171 854.4C177.846 842.578 182.799 828.039 185.035 822.128ZM191.426 837.944C189.988 843.057 186.793 853.441 184.237 861.11C181.84 868.779 180.402 875.649 181.041 876.288C181.84 876.927 188.39 877.566 195.739 877.566C203.088 877.566 209.639 876.927 210.438 876.288C211.077 875.649 210.438 869.897 208.84 863.507C207.083 857.116 203.887 847.051 201.651 840.98C199.254 834.909 196.538 829.637 195.58 829.317C194.621 828.998 192.704 832.832 191.426 837.944Z" fill="#E65137"/>
<path d="M452.477 813.022C447.205 814.939 442.892 817.974 440.975 821.01C439.217 823.566 437.3 829.477 436.661 834.11C435.862 840.98 436.182 843.376 438.898 848.01C440.815 851.045 444.969 855.518 448.324 857.755C451.838 859.992 460.625 864.785 468.134 868.459C475.643 871.974 483.631 876.447 486.187 878.205C488.584 880.122 490.98 883.796 491.459 886.832C492.099 890.027 491.459 893.862 489.862 897.217C488.264 900.252 485.069 903.288 481.714 904.725C478.678 906.004 472.288 907.122 467.815 907.122C463.182 907.122 456.951 906.483 454.235 905.524C451.359 904.725 448.324 902.489 447.365 900.731C446.406 898.974 445.767 895.299 445.767 892.743C445.767 888.43 445.288 887.95 440.975 887.95H436.182L436.981 910.956C449.442 915.589 457.909 917.347 464.14 917.826C470.371 918.305 478.359 917.826 482.193 916.867C485.868 915.909 491.14 913.193 494.016 910.796C496.732 908.24 499.927 903.927 501.205 901.211C502.323 898.335 503.282 892.743 503.282 888.749C503.282 884.755 502.323 879.643 501.045 877.246C499.767 874.69 496.732 870.856 494.175 868.459C491.779 866.223 482.832 860.95 474.525 856.956C466.217 852.802 456.951 847.69 454.235 845.613C449.762 842.258 448.963 840.501 448.963 835.229C448.963 830.276 449.921 828.039 453.436 825.163C456.312 822.607 460.785 821.01 467.335 820.371C472.608 819.732 478.838 819.732 481.235 820.53C484.749 821.649 485.868 823.406 487.146 829.317C488.743 836.187 489.223 836.826 493.696 836.826H498.489C498.649 815.897 498.329 815.098 494.175 813.022C491.619 811.743 483.471 810.465 475.323 810.146C463.661 809.826 459.347 810.306 452.477 813.022Z" fill="#E65137"/>
<path fill-rule="evenodd" clip-rule="evenodd" d="M617.033 868.299C616.713 843.536 617.033 820.211 617.512 816.536L618.471 809.667H636.364C646.269 809.667 656.813 810.465 659.849 811.424C662.884 812.542 667.837 814.939 670.713 817.016C673.429 819.092 677.583 823.566 679.659 826.921C681.736 830.116 684.612 836.826 686.05 841.619C687.488 846.412 688.606 855.838 688.606 862.388C688.606 868.939 687.328 879.004 685.73 884.755C684.133 890.507 680.778 897.856 678.222 901.211C675.186 905.205 669.594 909.199 663.044 912.394C653.618 917.027 651.222 917.506 637.163 917.506C626.618 917.506 621.027 916.867 619.589 915.429C617.991 913.832 617.352 902.808 617.033 868.299ZM629.175 860.471C629.015 824.524 629.175 822.447 632.05 821.01C633.648 820.051 639.08 819.891 643.873 820.371C648.666 820.85 655.376 822.607 658.731 824.205C661.926 825.962 665.92 829.158 667.677 831.714C669.275 834.11 671.512 838.903 672.63 842.418C673.748 846.252 674.228 855.518 673.908 865.743C673.429 881.24 673.109 883.317 668.636 890.506C665.76 895.14 661.127 899.773 657.453 901.85C652.66 904.566 648.346 905.524 641.157 905.524C632.05 905.524 631.092 905.205 630.293 902.009C629.814 899.932 629.334 881.24 629.175 860.471Z" fill="#E65137"/>
<path d="M736.215 810.945L702.985 811.424V835.388C711.772 835.388 712.571 834.749 712.571 831.394C712.571 829.158 713.369 825.962 714.168 824.205C715.446 821.489 717.363 821.01 725.352 821.01C731.742 821.01 735.097 821.649 735.417 822.927C735.576 824.045 735.417 842.897 734.937 864.944L734.138 904.885C720.559 906.323 719.76 906.802 719.76 910.477V914.471C763.535 915.11 763.694 915.11 763.694 911.595C763.694 908.56 762.576 907.761 756.984 906.802C753.15 906.163 749.635 904.725 748.837 903.607C748.198 902.489 747.878 883.637 748.357 861.749C748.837 839.702 749.156 821.489 749.156 821.329C749.316 821.169 753.949 821.01 759.7 821.01C767.529 821.01 770.245 821.489 770.884 823.406C771.363 824.684 771.683 827.879 771.683 830.595C771.683 834.43 772.322 835.388 775.357 835.388C778.393 835.388 779.032 834.27 780.15 827.72C780.789 823.566 781.109 818.294 780.949 815.897C780.629 812.382 779.671 811.584 774.878 811.104C771.842 810.785 754.428 810.785 736.215 810.945Z" fill="#E65137"/>
<path d="M795.966 855.838C795.487 819.891 795.647 814.459 797.884 812.382C799.321 810.945 801.718 810.306 803.315 810.945C804.753 811.424 806.511 812.702 807.15 813.661C807.949 814.619 808.428 831.554 808.428 851.365C808.588 883.637 808.907 887.95 811.623 894.021C813.381 897.696 816.416 901.85 818.493 903.128C820.41 904.406 825.203 905.844 829.197 906.483C834.15 907.282 838.463 906.802 842.777 905.045C846.611 903.447 850.445 900.412 852.363 897.217C855.238 892.583 855.558 888.749 856.037 856.956C856.197 837.465 856.836 819.412 857.155 816.536C857.954 812.063 858.593 811.424 862.747 811.424C867.38 811.424 867.54 811.584 868.658 820.53C869.138 825.643 869.138 844.175 868.499 861.749C867.7 887.471 866.901 894.82 864.505 900.092C862.907 903.607 859.871 907.921 857.794 909.838C855.718 911.915 850.765 914.631 846.771 915.909C842.777 917.347 836.706 918.465 833.191 918.465C829.676 918.305 823.605 917.347 819.611 916.228C815.617 915.11 810.345 912.714 807.949 911.116C805.392 909.358 801.718 905.524 799.961 902.489C796.606 897.217 796.446 894.341 795.966 855.838Z" fill="#E65137"/>
<path d="M250.857 814.619C250.857 816.377 251.496 817.974 252.135 818.453C252.775 818.773 259.165 819.732 266.514 820.371L279.615 821.808V905.684C262.999 905.684 256.449 906.003 254.532 906.483C251.976 906.962 250.857 908.4 250.857 911.276C250.857 913.992 251.976 915.43 254.532 915.909C256.449 916.228 272.266 916.069 289.68 915.429L321.153 914.471V905.684H293.993C292.715 897.536 292.396 878.684 292.715 858.554L293.194 821.808C302.185 821.295 307.975 820.781 311.892 820.433L311.898 820.433L311.9 820.432L311.925 820.43C312.867 820.347 313.7 820.273 314.443 820.211C320.354 819.412 321.153 818.773 321.153 815.418V811.424C251.976 811.424 250.857 811.424 250.857 814.619Z" fill="#E65137"/>
<path d="M342.721 904.406C342.721 898.974 342.88 875.649 343.2 852.962L343.52 811.424H348.312C351.348 811.424 354.383 812.702 356.301 814.939C358.058 816.856 359.496 819.092 359.496 819.732C359.496 820.371 361.892 824.684 364.768 829.477C367.644 834.11 371.478 839.862 373.555 842.258C375.472 844.495 378.028 846.252 379.147 845.933C380.265 845.613 386.176 837.625 392.247 828.199C402.791 812.223 403.75 811.264 413.016 812.223V914.471L408.223 913.992C405.667 913.672 403.111 913.193 402.632 912.714C402.152 912.074 401.993 896.897 402.312 878.684C402.632 860.471 402.152 843.536 400.075 836.187L395.602 844.175C393.046 848.489 388.732 855.518 386.016 859.672C382.502 865.264 380.105 867.181 377.868 866.862C375.951 866.702 371.318 861.27 365.567 852.483C360.454 844.814 355.661 838.584 354.703 838.584C353.744 838.584 353.425 848.01 354.224 866.063C354.703 881.24 354.703 898.495 353.105 915.27L342.721 914.471V904.406Z" fill="#E65137"/>
<path d="M536.193 869.737C534.755 871.175 533.637 872.613 533.637 872.933C533.637 873.412 534.755 874.69 536.193 876.128C537.95 877.885 542.903 878.524 559.199 878.524C575.335 878.524 580.447 877.885 582.364 876.128C583.802 874.69 584.92 872.613 584.92 871.335C584.92 869.897 583.323 868.459 581.246 868.14C579.329 867.66 568.944 867.341 558.24 867.341C542.743 867.341 538.27 867.82 536.193 869.737Z" fill="#E65137"/>
<path fill-rule="evenodd" clip-rule="evenodd" d="M369.72 230.526C367.004 231.645 363.649 234.361 362.211 236.438C360.774 238.514 359.016 242.668 358.537 245.704C357.898 248.739 358.377 254.011 359.336 257.366C360.294 260.881 362.851 264.396 365.567 265.994C367.51 267.16 369.349 268.431 370.23 269.041C370.435 269.182 370.588 269.288 370.679 269.349C371.158 269.668 371.797 291.875 372.277 318.715L373.075 367.443C379.306 372.236 381.383 373.674 381.862 373.674C382.342 373.514 384.099 372.555 385.856 371.277C388.572 369.2 388.732 368.402 387.134 365.686C385.537 363.129 385.058 350.348 385.058 316.479V270.467C392.407 264.875 395.762 260.881 397.2 258.165C399.117 254.491 399.596 250.656 398.957 245.704C398.318 241.71 396.72 237.236 395.123 235.479C393.525 233.881 389.85 231.485 387.134 230.367C384.259 229.088 380.265 228.13 378.348 228.13C376.271 228.29 372.436 229.248 369.72 230.526ZM368.763 249.218C368.603 246.822 369.402 243.946 370.68 242.828C371.958 241.709 375.153 240.911 377.709 240.911C380.425 240.751 383.621 241.709 384.739 242.828C385.857 243.946 386.496 246.982 386.337 249.698C386.017 253.053 384.579 254.97 381.544 256.408C377.869 258.165 376.431 258.005 373.076 256.088C370.52 254.491 368.922 252.094 368.763 249.218Z" fill="#E65137"/>
<path fill-rule="evenodd" clip-rule="evenodd" d="M481.075 235.639C478.04 237.236 474.365 241.071 472.767 244.585C471.01 247.781 469.732 252.574 469.732 255.29C469.732 258.006 470.371 261.68 471.17 263.757C471.969 265.674 475.164 269.988 478.359 273.343L484.111 279.254V331.976C494.176 336.449 494.495 336.289 495.613 333.094C496.093 331.177 496.572 317.917 496.732 303.698C496.892 278.934 497.051 277.497 500.566 273.982C502.483 272.065 505.678 268.23 507.755 265.674C509.992 262.639 511.43 258.804 511.27 255.29C511.27 252.254 509.832 247.301 508.075 244.585C506.318 241.71 503.282 238.195 501.365 236.917C499.288 235.639 495.134 234.201 492.099 233.722C488.424 233.083 484.59 233.881 481.075 235.639ZM482.194 257.846C480.437 254.491 480.597 253.212 482.993 249.857C484.91 246.982 487.147 245.704 490.502 245.704C493.857 245.704 496.094 246.982 498.171 249.857C500.407 253.212 500.567 254.491 498.969 257.846C497.851 259.922 495.295 262.159 493.378 262.638C491.301 263.277 488.425 263.277 486.987 262.638C485.39 262.159 483.153 259.922 482.194 257.846Z" fill="#E65137"/>
<path fill-rule="evenodd" clip-rule="evenodd" d="M534.436 244.106C535.874 241.23 539.548 238.035 543.702 236.118C547.377 234.361 551.53 232.923 552.809 232.923C554.087 232.923 558.081 234.361 561.596 235.798C566.069 237.875 568.945 240.591 571.022 245.065C573.098 249.538 573.737 253.372 573.098 258.485C572.459 264.396 571.021 266.792 559.519 276.858L559.039 310.727C558.72 329.26 557.921 344.917 557.282 345.396C556.483 345.875 554.406 345.396 552.489 344.118C550.412 342.84 548.335 340.124 547.696 338.047C547.057 336.13 546.418 321.591 546.418 277.656L539.229 270.946C532.838 264.716 532.199 263.437 532.039 256.568C532.039 252.254 533.158 246.822 534.436 244.106ZM546.419 248.899C544.342 250.976 543.543 253.212 544.182 255.769C544.662 257.686 546.259 260.242 547.857 261.36C549.295 262.479 552.17 263.277 554.407 262.958C556.644 262.638 559.36 260.721 560.798 258.325C563.034 254.491 562.874 253.692 560.478 249.857C558.561 247.301 556.164 245.704 553.608 245.704C551.372 245.704 548.176 247.141 546.419 248.899Z" fill="#E65137"/>
<path fill-rule="evenodd" clip-rule="evenodd" d="M639.879 237.556C637.163 239.154 633.808 242.349 632.211 244.426C630.453 246.822 629.495 250.976 629.495 256.088C629.654 260.562 630.453 265.674 631.572 267.591C632.69 269.508 635.406 272.544 637.962 274.301L642.276 277.656C642.276 370.479 642.116 371.118 638.601 374.792C636.258 377.135 635.619 378.893 636.684 380.064C637.643 380.863 640.678 381.342 643.714 381.183C647.548 380.863 650.104 379.266 652.501 376.23C655.696 371.916 655.856 369.68 656.335 324.627L656.654 277.656C666.879 268.39 668.317 265.674 668.956 260.082C669.435 255.29 668.956 250.816 667.199 246.982C665.761 243.627 663.045 239.793 661.128 238.514C659.051 237.236 654.577 235.639 651.063 235.159C646.27 234.52 643.394 235.159 639.879 237.556ZM640.359 259.443C638.602 256.088 638.762 254.81 641.158 251.455C642.916 248.739 645.472 247.301 648.348 247.301C650.744 247.141 653.62 248.1 654.738 249.218C655.856 250.337 656.496 253.692 656.336 256.727C656.016 259.763 654.738 262.798 653.46 263.757C652.182 264.556 649.146 264.875 646.75 264.236C644.194 263.757 641.318 261.52 640.359 259.443Z" fill="#E65137"/>
<path fill-rule="evenodd" clip-rule="evenodd" d="M316.679 283.568C318.436 281.011 321.472 278.455 323.389 277.656C325.147 276.858 329.62 276.218 333.135 276.218C336.809 276.218 341.762 277.497 344.797 279.254C347.513 281.011 350.549 283.887 351.507 285.645C352.466 287.402 353.105 292.674 353.105 297.147C352.945 305.136 352.626 305.934 338.567 318.396L338.886 369.52C339.206 416.33 339.046 420.644 336.649 421.123C335.052 421.283 332.336 419.206 330.419 416.33C326.904 411.218 326.744 409.461 325.147 318.076L319.874 313.443C316.999 310.887 313.803 306.254 312.845 303.218C311.886 300.183 311.726 295.55 312.206 292.834C312.845 290.118 314.762 285.964 316.679 283.568ZM326.745 291.236C324.668 293.313 322.911 295.869 322.751 296.828C322.751 297.626 324.508 300.183 326.745 302.419C328.982 304.656 331.857 306.413 333.136 306.413C334.414 306.413 336.97 304.976 338.727 303.218C340.485 301.461 341.922 298.585 341.922 296.828C341.922 295.07 340.005 292.195 337.609 290.437C335.053 288.52 332.496 287.082 331.857 287.242C331.218 287.242 328.822 288.999 326.745 291.236Z" fill="#E65137"/>
<path fill-rule="evenodd" clip-rule="evenodd" d="M686.21 279.094C683.494 280.852 680.14 283.887 678.542 285.964C676.785 288.36 675.826 292.514 675.826 297.946C675.826 305.615 676.465 307.053 682.216 312.804L688.607 319.195C690.364 397.319 690.205 404.189 687.968 410.739C686.051 416.171 685.891 419.366 687.009 422.242C687.968 424.478 689.086 426.236 689.885 426.236C690.524 426.236 692.601 424.638 694.518 422.721C696.435 420.644 698.832 416.81 699.79 414.254C700.909 411.218 701.548 393.964 701.388 365.047V320.792C715.128 307.053 715.767 305.775 715.767 298.426C715.767 292.674 714.808 289 712.252 285.325C710.175 282.609 706.181 279.254 703.465 278.136C700.589 277.017 696.595 276.059 694.678 276.059C692.601 276.059 688.767 277.497 686.21 279.094ZM688.288 292.834C688.927 291.875 690.844 290.437 692.442 289.319C694.2 288.36 696.276 287.881 697.235 288.36C698.194 288.84 700.271 290.437 701.868 291.875C703.466 293.313 704.584 295.869 704.584 297.626C704.584 299.384 703.306 302.1 701.708 303.697C700.271 305.295 697.555 306.413 695.797 306.413C694.04 306.413 691.324 305.135 689.726 303.538C688.129 302.1 687.01 299.384 687.01 297.626C687.01 295.869 687.649 293.632 688.288 292.834Z" fill="#E65137"/>
<path d="M427.395 342.68C430.909 340.922 436.022 338.846 438.578 338.206C441.134 337.408 449.442 337.248 456.951 337.567C467.974 338.206 471.969 339.165 477.72 342.68C481.714 344.917 486.507 348.112 488.584 349.869C491.926 352.734 492.256 352.586 499.68 349.269L499.767 349.23C505.039 346.674 510.312 345.715 517.661 345.556C526.288 345.556 529.962 346.514 538.43 350.668C544.98 353.863 549.613 357.218 550.891 359.774C552.489 363.129 553.607 363.769 557.282 363.129C558.274 362.931 559.869 362.623 561.737 362.262L561.74 362.262C564.384 361.751 567.575 361.135 570.382 360.573C576.933 359.135 581.406 359.135 587.956 360.573C592.749 361.532 600.737 364.727 605.53 367.443C611.282 370.958 616.394 375.911 620.868 382.301C624.702 387.573 629.015 392.366 630.613 393.005C632.211 393.644 636.045 394.443 639.08 394.922C642.116 395.402 649.146 398.757 654.737 402.271C663.684 408.023 665.282 409.94 671.033 421.922C676.145 432.147 679.181 436.301 685.092 440.614C690.364 444.449 694.039 449.082 697.394 455.792C699.95 461.064 702.347 468.573 702.666 472.567C703.145 476.561 702.187 483.75 700.909 488.543C699.151 494.774 696.116 499.727 690.684 505.798C686.37 510.591 680.619 515.064 677.424 516.182C674.069 517.301 661.447 518.099 620.708 518.099L619.909 512.508C619.27 509.472 617.832 505.318 616.554 503.401C615.276 501.324 610.962 498.289 606.808 496.531C602.495 494.774 599.14 492.857 599.14 492.218C599.14 491.419 600.098 488.703 601.536 486.147C602.814 483.591 603.933 479.437 603.933 477.04C603.933 474.484 602.974 470.171 601.696 467.455C600.578 464.579 594.666 457.39 588.595 451.478C582.524 445.727 574.856 439.816 571.661 438.378C566.229 436.141 564.791 436.141 558.081 438.218C552.01 439.975 549.933 439.975 548.335 438.538C547.217 437.419 546.258 435.662 546.418 434.703C546.418 433.585 543.862 430.07 535.235 421.443H512.548C494.815 421.443 488.903 421.922 486.187 423.839C484.111 425.117 481.075 429.431 479.318 433.425C476.282 440.295 475.963 440.614 471.01 439.496C468.134 438.697 462.063 438.218 457.75 438.218C452.158 438.218 448.483 439.177 445.608 441.413C443.371 443.171 436.661 449.881 430.91 456.271C421.484 466.496 420.205 468.573 420.205 474.165C420.205 477.679 421.164 482.952 422.442 485.827C423.72 488.543 424.199 491.739 423.56 492.857C423.081 493.815 420.844 495.094 418.608 495.573C416.371 496.052 412.697 498.608 410.46 501.005C408.063 503.401 405.347 508.034 404.389 511.389C402.791 516.662 401.992 517.46 396.72 518.099C393.365 518.579 380.904 518.259 369.081 517.46C349.59 516.023 346.874 515.543 340.484 511.389C336.17 508.673 331.857 503.881 328.981 498.928C326.584 494.614 323.868 487.425 323.07 482.952C322.271 477.839 322.271 471.768 323.389 466.017C324.348 460.745 327.223 454.035 329.939 450.04C332.655 446.046 338.407 440.934 343.04 438.218C350.07 434.224 351.507 432.467 352.306 427.833C352.785 424.798 354.383 418.727 355.661 414.254C357.099 409.94 359.815 403.869 361.732 401.153C363.649 398.277 368.922 393.804 373.555 391.088C378.028 388.532 385.856 385.337 390.649 384.378C398.478 382.461 399.596 381.822 400.395 377.508C401.034 374.952 402.791 369.999 404.389 366.804C406.146 363.449 410.46 357.378 414.294 353.384C417.969 349.23 423.88 344.437 427.395 342.68Z" fill="#E65137"/>
<path fill-rule="evenodd" clip-rule="evenodd" d="M498.968 438.218C494.974 439.975 493.217 442.212 491.779 447.165C490.661 450.839 488.264 454.833 486.507 455.952C484.75 457.23 481.075 458.668 478.519 459.307C475.164 459.946 471.969 459.307 467.815 456.75C464.46 454.993 460.785 453.395 459.667 453.395C458.389 453.395 452.957 457.39 447.685 462.182C441.081 468.04 437.779 472.194 437.779 474.644C437.779 476.561 439.377 481.354 441.134 485.348C444.33 492.218 444.489 492.857 441.933 499.407C439.537 505.638 438.738 506.277 430.59 508.514C424.998 509.952 421.483 512.028 420.844 513.786C420.365 515.224 419.566 521.934 419.087 528.484C418.448 536.153 418.768 541.744 420.046 544.141C421.164 546.218 423.88 547.975 427.075 548.614C429.791 549.093 433.306 549.732 434.584 550.052C435.862 550.372 438.259 553.247 439.856 556.283C441.294 559.478 442.572 563.472 442.572 565.229C442.572 566.987 441.134 570.342 439.377 572.898C437.46 575.295 436.182 578.969 436.182 581.206C436.182 583.922 439.377 588.235 446.566 595.265C452.318 600.697 458.229 605.17 459.827 605.17C461.264 605.33 464.46 603.892 467.016 601.975C469.412 600.217 473.087 598.78 475.324 598.78C477.56 598.78 481.714 599.738 484.59 600.857C488.903 602.614 490.022 604.212 491.619 610.922C492.738 615.235 494.495 619.709 495.613 620.827C497.051 622.265 502.164 622.744 513.347 622.425C525.17 622.105 529.323 621.306 530.442 619.549C531.241 618.271 532.359 614.436 532.838 611.241C533.317 607.407 534.915 604.212 537.312 602.774C539.229 601.496 543.383 599.898 546.418 599.419C550.572 598.62 553.448 599.099 558.081 601.655C561.276 603.573 565.27 604.851 566.868 604.371C568.306 604.052 574.057 598.939 579.649 593.188C585.081 587.437 589.554 581.845 589.554 580.886C589.554 579.768 587.477 576.093 585.081 572.738C580.927 566.827 580.767 566.508 583.163 559.318C584.442 555.324 586.359 551.49 587.158 550.691C588.116 549.892 591.631 548.774 595.146 548.295C598.66 547.656 602.495 546.377 603.613 545.419C605.051 544.301 605.69 539.508 605.53 530.88C605.53 523.851 605.211 516.502 604.731 514.585C604.092 511.869 602.495 510.591 598.021 509.952C594.666 509.312 590.672 508.194 589.234 507.555C587.637 506.756 585.24 503.881 583.962 501.324C582.684 498.768 581.566 494.614 581.566 492.218C581.566 489.662 583.163 485.188 585.081 482.153C586.838 478.958 587.956 475.123 587.477 473.366C586.998 471.608 582.045 466.336 576.453 461.543C569.584 455.472 565.11 452.916 562.394 452.916C560.158 453.076 556.962 454.674 555.205 456.431C553.448 458.188 550.412 459.786 548.495 459.786C546.418 459.786 542.264 458.668 539.229 457.39C536.193 456.111 532.998 453.395 532.199 451.478C531.4 449.401 530.282 445.887 529.803 443.49C529.164 440.774 527.246 438.378 524.85 437.419C522.613 436.461 517.022 435.822 512.548 435.822C507.915 435.981 501.684 436.94 498.968 438.218ZM496.094 489.342C490.821 491.579 484.111 495.732 481.236 498.608C478.36 501.324 474.526 507.555 472.928 512.188C471.171 516.661 469.733 523.531 469.733 527.365C469.733 531.04 470.851 537.75 472.449 542.064C474.046 547.016 477.721 552.608 482.034 556.922C485.869 560.596 491.94 565.069 495.774 566.827C500.088 568.904 505.839 570.022 512.07 570.022C518.301 570.022 524.052 568.904 528.525 566.827C532.2 565.069 538.591 560.596 542.585 556.922C548.176 551.649 550.413 547.975 552.33 541.265C553.928 535.833 554.567 529.123 554.088 523.691C553.608 518.898 551.851 512.028 550.093 508.513C548.336 504.999 544.022 499.726 540.667 496.851C537.312 494.135 530.123 490.3 524.851 488.543C519.579 486.786 513.028 485.348 510.472 485.348C507.916 485.348 501.366 487.265 496.094 489.342Z" fill="#E65137"/>
</svg>
