<svg width="1024" height="1024" viewBox="0 0 1024 1024" fill="none" xmlns="http://www.w3.org/2000/svg">
<rect width="1024" height="1024" fill="black"/>
<path d="M464.356 193.422C473.031 191.716 487.396 189.724 496.356 189.156C505.316 188.587 519.396 188.302 527.645 188.729C535.894 189.013 548.409 190.009 555.378 190.72C562.347 191.573 576.569 194.418 586.667 196.978C596.765 199.68 609.991 203.52 615.823 205.653C621.654 207.644 634.169 213.191 643.556 217.742C652.943 222.293 668.303 231.111 677.689 237.369C687.076 243.627 700.16 253.724 706.845 259.84C713.529 265.956 722.489 274.916 726.898 279.467C731.307 284.16 739.556 294.116 745.245 301.511C750.934 308.907 759.467 321.707 764.303 329.956C769.138 338.204 776.107 351.858 779.663 360.533C783.218 369.209 788.054 382.293 790.471 389.689C792.747 397.084 795.734 408.036 797.014 413.867C798.294 419.698 800 429.653 800.711 435.911C801.565 442.169 802.134 459.52 802.276 474.311C802.276 489.102 801.991 503.893 801.423 507.022C800.996 510.151 800 516.551 799.147 521.244L798.964 522.252C798.118 526.907 796.955 533.315 796.16 536.889C795.449 540.871 792.463 550.969 789.76 559.644C786.916 568.32 781.369 582.684 777.245 591.644C773.263 600.604 766.009 614.4 761.031 622.222C756.054 630.044 749.085 640.284 745.529 644.978C741.974 649.671 735.005 657.92 730.169 663.467C725.334 669.013 715.378 678.684 707.983 685.227C700.729 691.627 688.356 701.44 680.534 706.987C672.711 712.391 657.067 721.636 645.689 727.324C634.311 733.013 618.098 740.124 609.423 742.827C600.747 745.671 587.663 749.369 580.267 750.933C572.871 752.498 558.791 754.773 548.978 755.911C539.165 757.049 525.369 758.044 518.4 758.044C511.431 758.044 497.636 757.049 487.823 755.911C478.009 754.631 464.214 752.356 457.245 750.791C450.276 749.227 437.476 745.813 428.8 743.111C420.125 740.409 404.054 733.724 392.534 727.893C381.156 722.204 367.076 714.382 361.245 710.542C355.414 706.56 345.743 699.591 339.911 694.898C334.08 690.204 324.267 681.529 318.151 675.556C311.894 669.724 302.649 659.484 297.387 652.8C291.983 646.116 283.876 634.88 279.183 627.911C274.489 620.942 267.52 608.996 263.823 601.6C260.125 594.204 255.289 583.253 253.014 577.422C250.738 571.591 246.614 558.791 243.911 548.978C241.209 539.164 237.796 523.093 236.089 513.138C234.098 500.338 233.245 488.249 233.245 472.604C233.245 457.529 234.24 444.729 235.947 433.778C237.369 424.818 240.498 409.742 242.916 400.356C245.334 390.969 250.311 375.893 253.867 366.933C257.423 357.973 262.969 345.742 266.098 339.911C269.227 334.08 275.911 323.129 280.889 315.733C285.867 308.338 293.974 297.102 299.094 290.844C304.071 284.587 314.454 273.636 322.276 266.382C329.956 259.271 339.485 250.88 343.467 247.893C347.307 244.764 355.983 238.649 362.667 234.382C369.351 230.116 378.596 224.569 383.289 222.151C387.983 219.733 396.943 215.467 403.2 212.764C409.458 210.062 422.258 205.227 431.645 202.098C441.031 199.111 455.68 195.129 464.356 193.422Z" fill="white"/>
<path d="M227.271 826.027C229.974 819.2 231.965 816.213 233.956 815.787C235.52 815.502 236.943 815.218 237.085 815.076C237.369 815.076 239.076 815.644 241.067 816.356C243.627 817.351 245.191 819.769 246.614 824.604C247.751 828.302 253.298 844.373 258.845 860.444C264.391 876.516 270.223 893.44 271.645 898.133C273.209 902.827 274.489 907.093 274.489 907.804C274.489 908.373 272.64 908.8 270.223 908.8C267.378 908.8 265.245 907.804 263.965 905.671C262.827 903.822 260.409 898.56 258.703 893.867C256.996 889.173 254.578 884.48 253.298 883.484C251.734 882.347 246.045 881.778 235.805 881.778C224.285 881.778 220.16 882.347 218.454 883.911C217.174 885.049 215.751 888.747 215.325 892.16C214.756 895.431 213.476 900.551 212.48 903.538C210.631 908.231 209.92 908.8 205.511 908.8C202.098 908.8 200.534 908.089 200.534 906.667C200.534 905.529 203.094 897.707 206.08 889.316C209.209 880.782 214.329 865.28 217.6 854.756C220.871 844.231 225.28 831.289 227.271 826.027Z" fill="white"/>
<path d="M455.111 825.031C456.818 822.329 460.658 819.627 465.351 817.92C471.467 815.502 475.307 815.076 485.689 815.36C492.943 815.644 500.196 816.782 502.471 817.92C506.169 819.769 506.454 820.48 506.311 839.111H502.045C498.063 839.111 497.636 838.542 496.214 832.427C495.076 827.164 494.08 825.6 490.951 824.604C488.818 823.893 483.271 823.893 478.578 824.462C472.747 825.031 468.765 826.453 466.205 828.729C463.076 831.289 462.223 833.28 462.223 837.689C462.223 842.382 462.934 843.947 466.916 846.933C469.334 848.782 477.583 853.333 484.978 857.031C492.374 860.587 500.338 865.28 502.471 867.271C504.747 869.404 507.449 872.818 508.587 875.093C509.725 877.227 510.578 881.778 510.578 885.333C510.578 888.889 509.725 893.867 508.729 896.427C507.591 898.844 504.747 902.684 502.329 904.96C499.769 907.093 495.076 909.511 491.805 910.364C488.391 911.218 481.28 911.644 475.734 911.218C470.187 910.791 462.649 909.227 451.556 905.102L450.845 884.622H455.111C458.951 884.622 459.378 885.049 459.378 888.889C459.378 891.164 459.947 894.436 460.8 896C461.654 897.564 464.356 899.556 466.916 900.267C469.334 901.12 474.88 901.689 479.005 901.689C482.987 901.689 488.676 900.693 491.378 899.556C494.365 898.276 497.209 895.573 498.632 892.871C500.054 889.884 500.623 886.471 500.054 883.627C499.627 880.924 497.494 877.653 495.36 875.947C493.085 874.382 485.974 870.4 479.289 867.271C472.605 864 464.783 859.733 461.654 857.742C458.667 855.751 454.969 851.769 453.263 849.067C450.845 844.942 450.56 842.809 451.271 836.693C451.84 832.569 453.547 827.307 455.111 825.031Z" fill="white"/>
<path d="M611.84 867.129C611.556 845.084 611.84 824.32 612.267 821.049L613.12 814.933H629.049C637.867 814.933 647.254 815.644 649.956 816.498C652.658 817.493 657.067 819.627 659.627 821.476C662.045 823.324 665.743 827.307 667.591 830.293C669.44 833.138 672 839.111 673.28 843.378C674.56 847.644 675.556 856.036 675.556 861.867C675.556 867.698 674.418 876.658 672.996 881.778C671.574 886.898 668.587 893.44 666.311 896.427C663.609 899.982 658.631 903.538 652.8 906.382C644.409 910.507 642.276 910.933 629.76 910.933C620.374 910.933 615.396 910.364 614.116 909.084C612.694 907.662 612.125 897.849 611.84 867.129Z" fill="white"/>
<path d="M688.356 816.498L717.938 816.071C734.151 815.929 749.654 815.929 752.356 816.213C756.623 816.64 757.476 817.351 757.76 820.48C757.903 822.613 757.618 827.307 757.049 831.004C756.054 836.836 755.485 837.831 752.783 837.831C750.08 837.831 749.511 836.978 749.511 833.564C749.511 831.147 749.227 828.302 748.8 827.164C748.232 825.458 745.814 825.031 738.845 825.031C733.725 825.031 729.6 825.173 729.458 825.316C729.458 825.458 729.174 841.671 728.747 861.298C728.32 880.782 728.605 897.564 729.174 898.56C729.885 899.556 733.014 900.836 736.427 901.404C741.405 902.258 742.4 902.969 742.4 905.671C742.4 908.8 742.258 908.8 703.289 908.231V904.676C703.289 901.404 704 900.978 716.089 899.698L716.8 864.142C717.227 844.516 717.369 827.733 717.227 826.738C716.943 825.6 713.956 825.031 708.267 825.031C701.156 825.031 699.449 825.458 698.311 827.876C697.6 829.44 696.889 832.284 696.889 834.276C696.889 837.262 696.178 837.831 688.356 837.831V816.498Z" fill="white"/>
<path d="M771.129 856.036C770.703 824.036 770.845 819.2 772.836 817.351C774.116 816.071 776.249 815.502 777.671 816.071C778.951 816.498 780.516 817.636 781.085 818.489C781.796 819.342 782.223 834.418 782.223 852.053C782.365 880.782 782.649 884.622 785.067 890.027C786.631 893.298 789.334 896.996 791.183 898.133C792.889 899.271 797.156 900.551 800.711 901.12C805.12 901.831 808.96 901.404 812.8 899.84C816.214 898.418 819.627 895.716 821.334 892.871C823.894 888.747 824.178 885.333 824.605 857.031C824.747 839.68 825.316 823.609 825.6 821.049C826.311 817.067 826.88 816.498 830.578 816.498C834.703 816.498 834.845 816.64 835.84 824.604C836.267 829.156 836.267 845.653 835.698 861.298C834.987 884.196 834.276 890.738 832.143 895.431C830.72 898.56 828.018 902.4 826.169 904.107C824.32 905.956 819.911 908.373 816.356 909.511C812.8 910.791 807.396 911.787 804.267 911.787C801.138 911.644 795.734 910.791 792.178 909.796C788.623 908.8 783.929 906.667 781.796 905.244C779.52 903.68 776.249 900.267 774.685 897.564C771.698 892.871 771.556 890.311 771.129 856.036Z" fill="white"/>
<path d="M287.005 822.756C286.436 822.329 285.867 820.907 285.867 819.342C285.867 816.498 286.863 816.498 348.445 816.498V820.053C348.445 823.04 347.734 823.609 342.471 824.32C339.058 824.604 333.511 825.173 323.556 825.742L323.129 858.453C322.845 876.373 323.129 893.156 324.267 900.409H348.445V908.231L320.427 909.084C304.925 909.653 290.845 909.796 289.138 909.511C286.863 909.084 285.867 907.804 285.867 905.387C285.867 902.827 286.863 901.547 289.138 901.12C290.845 900.693 296.676 900.409 311.467 900.409V825.742L299.805 824.462C293.263 823.893 287.574 823.04 287.005 822.756Z" fill="white"/>
<path d="M367.645 899.271C367.645 894.436 367.787 873.671 368.071 853.476L368.356 816.498H372.623C375.325 816.498 378.027 817.636 379.734 819.627C381.298 821.333 382.578 823.324 382.578 823.893C382.578 824.462 384.711 828.302 387.271 832.569C389.831 836.693 393.245 841.813 395.094 843.947C396.8 845.938 399.076 847.502 400.071 847.218C401.067 846.933 406.329 839.822 411.734 831.431C421.12 817.209 421.974 816.356 430.223 817.209V908.231L425.956 907.804C423.68 907.52 421.405 907.093 420.978 906.667C420.551 906.098 420.409 892.587 420.694 876.373C420.978 860.16 420.551 845.084 418.703 838.542L414.72 845.653C412.445 849.493 408.605 855.751 406.187 859.449C403.058 864.427 400.925 866.133 398.934 865.849C397.227 865.707 393.103 860.871 387.983 853.049C383.431 846.222 379.165 840.676 378.311 840.676C377.458 840.676 377.174 849.067 377.885 865.138C378.311 878.649 378.311 894.009 376.889 908.942L367.645 908.231V899.271Z" fill="white"/>
<path d="M537.6 871.253C537.6 870.969 538.596 869.689 539.876 868.409C541.725 866.702 545.707 866.276 559.503 866.276C569.031 866.276 578.276 866.56 579.983 866.987C581.831 867.271 583.254 868.551 583.254 869.831C583.254 870.969 582.258 872.818 580.978 874.098C579.271 875.662 574.72 876.231 560.356 876.231C545.849 876.231 541.44 875.662 539.876 874.098C538.596 872.818 537.6 871.68 537.6 871.253Z" fill="white"/>
<path d="M468.622 204.231C474.88 203.093 481.991 201.813 484.266 201.387C486.542 201.102 503.893 200.96 522.666 201.244C551.537 201.529 559.075 202.098 571.022 204.658C578.844 206.364 591.644 209.636 599.466 212.053C607.289 214.329 619.52 218.88 626.489 221.867C633.457 224.996 645.404 230.969 652.8 235.236C660.195 239.502 672.711 247.609 680.533 253.298C688.355 259.129 700.729 269.511 708.124 276.622C715.377 283.591 725.333 294.258 730.026 300.089C734.862 305.92 742.4 316.587 747.093 323.556C751.644 330.524 757.617 340.48 760.177 345.6C762.737 350.72 767.573 361.244 770.844 369.067C774.257 376.889 778.809 389.689 781.084 397.511C783.36 405.333 786.489 418.702 788.195 427.378C790.613 440.178 791.182 448.569 791.182 472.889C791.182 497.636 790.613 505.742 788.053 520.533C786.204 530.347 782.364 545.707 779.377 554.667C776.533 563.627 771.271 577.138 768 584.533C764.586 591.929 759.609 601.884 756.906 606.578C754.062 611.271 749.369 618.951 746.097 623.644C742.969 628.338 735.857 638.009 730.311 644.978C724.622 651.947 714.382 663.182 707.413 669.724C700.444 676.267 689.635 685.511 683.377 690.204C677.12 694.756 666.169 702.151 659.2 706.56C652.231 710.827 640.995 716.942 634.311 720.071C627.626 723.2 613.831 728.462 603.733 731.733C593.635 735.147 577.28 739.413 567.466 741.262C551.964 744.107 545.28 744.533 516.266 744.533C487.111 744.533 480.711 744.107 466.489 741.262C457.529 739.413 441.457 735.004 430.933 731.449C420.409 728.036 405.049 721.635 396.8 717.511C388.551 713.244 375.466 705.564 367.644 700.444C359.822 695.182 349.013 687.36 343.609 682.951C338.204 678.4 327.253 668.018 319.431 659.769C311.466 651.378 299.946 637.298 293.689 628.48C287.431 619.52 279.182 605.867 275.2 598.044C271.217 590.222 264.817 575.431 261.12 565.333C257.422 555.236 252.586 539.164 250.595 529.778C247.04 513.707 246.897 510.436 246.755 472.889C246.755 436.053 247.04 431.929 250.169 418.133C252.017 409.884 255.715 396.516 258.417 388.267C261.12 380.018 267.377 364.658 272.497 354.133C277.617 343.609 284.16 331.378 287.004 327.111C289.849 322.844 295.68 314.453 299.946 308.622C304.213 302.791 316.729 288.996 327.68 278.044C342.044 263.68 351.857 255.431 362.666 248.32C370.915 242.916 384 235.093 391.822 230.969C399.644 226.844 411.875 221.156 418.844 218.453C425.813 215.751 437.475 211.911 444.444 210.062C451.413 208.071 462.364 205.511 468.622 204.231Z" fill="black"/>
<path d="M622.649 860.16C622.506 828.16 622.649 826.311 625.209 825.031C626.631 824.178 631.466 824.036 635.733 824.462C640 824.889 645.973 826.453 648.96 827.876C651.804 829.44 655.36 832.284 656.924 834.56C658.346 836.693 660.337 840.96 661.333 844.089C662.329 847.502 662.755 855.751 662.471 864.853C662.044 878.649 661.76 880.498 657.777 886.898C655.217 891.022 651.093 895.147 647.822 896.996C643.555 899.413 639.715 900.267 633.315 900.267C625.209 900.267 624.355 899.982 623.644 897.138C623.217 895.289 622.791 878.649 622.649 860.16Z" fill="black"/>
<path d="M226.56 860.729C228.835 853.902 231.68 844.658 232.96 840.107C234.097 835.556 235.804 832.142 236.657 832.427C237.511 832.711 239.929 837.404 242.062 842.809C244.053 848.213 246.897 857.173 248.462 862.862C249.884 868.551 250.453 873.671 249.884 874.24C249.173 874.809 243.342 875.378 236.8 875.378C230.257 875.378 224.426 874.809 223.715 874.24C223.146 873.671 224.426 867.556 226.56 860.729Z" fill="black"/>
<path d="M384.996 304.64C386.276 302.791 389.262 300.374 391.68 299.378C394.098 298.24 397.511 297.387 399.36 297.245C401.067 297.245 404.622 298.098 407.182 299.236C409.6 300.231 412.871 302.365 414.294 303.787C415.716 305.351 417.138 309.334 417.707 312.889C418.276 317.298 417.849 320.711 416.143 323.982C414.863 326.4 411.876 329.956 405.334 334.934V375.894C405.334 406.045 405.76 417.422 407.182 419.698C408.605 422.116 408.462 422.827 406.045 424.676C404.48 425.814 402.916 426.667 402.489 426.809C402.062 426.809 400.214 425.529 394.667 421.262L393.956 377.885C393.529 353.991 392.96 334.222 392.534 333.938C392.107 333.654 390.116 332.231 387.982 330.951C385.565 329.529 383.289 326.4 382.436 323.271C381.582 320.285 381.156 315.591 381.725 312.889C382.151 310.187 383.716 306.489 384.996 304.64Z" fill="white"/>
<path d="M483.414 311.894C484.836 308.765 488.107 305.351 490.809 303.929C493.938 302.365 497.352 301.654 500.623 302.222C503.325 302.649 507.023 303.929 508.872 305.067C510.578 306.205 513.281 309.334 514.845 311.894C516.41 314.311 517.69 318.72 517.69 321.422C517.832 324.551 516.552 327.965 514.561 330.667C512.712 332.942 509.867 336.356 508.161 338.062C505.032 341.191 504.889 342.471 504.747 364.516C504.605 377.174 504.178 388.978 503.752 390.685C502.756 393.529 502.472 393.671 493.512 389.689V342.756L488.392 337.494C485.547 334.507 482.703 330.667 481.992 328.96C481.281 327.111 480.712 323.84 480.712 321.422C480.712 319.005 481.849 314.738 483.414 311.894Z" fill="white"/>
<path d="M538.312 311.467C539.592 308.907 542.863 306.062 546.561 304.356C549.832 302.791 553.53 301.511 554.667 301.511C555.805 301.511 559.361 302.791 562.49 304.071C566.472 305.92 569.032 308.338 570.881 312.32C572.73 316.302 573.299 319.716 572.73 324.267C572.161 329.529 570.881 331.662 560.641 340.622L560.214 370.774C559.93 387.271 559.219 401.209 558.65 401.636C557.939 402.062 556.09 401.636 554.383 400.498C552.534 399.36 550.685 396.942 550.116 395.094C549.547 393.387 548.978 380.445 548.978 341.334L542.578 335.36C536.89 329.814 536.321 328.676 536.178 322.56C536.178 318.72 537.174 313.885 538.312 311.467Z" fill="white"/>
<path d="M625.352 311.751C626.774 309.902 629.761 307.058 632.179 305.636C635.308 303.502 637.868 302.934 642.134 303.502C645.263 303.929 649.245 305.351 651.094 306.489C652.801 307.627 655.219 311.04 656.499 314.027C658.063 317.44 658.49 321.422 658.063 325.689C657.494 330.667 656.214 333.085 647.112 341.334L646.828 383.147C646.401 423.254 646.259 425.245 643.414 429.085C641.281 431.787 639.005 433.209 635.592 433.494C632.89 433.636 630.188 433.209 629.334 432.498C628.386 431.455 628.955 429.891 631.041 427.805C634.17 424.534 634.312 423.965 634.312 341.334L630.472 338.347C628.197 336.782 625.779 334.08 624.783 332.374C623.788 330.667 623.077 326.116 622.934 322.134C622.934 317.582 623.788 313.885 625.352 311.751Z" fill="white"/>
<path d="M344.462 346.596C346.027 344.32 348.729 342.045 350.436 341.334C352 340.622 355.982 340.054 359.111 340.054C362.382 340.054 366.791 341.191 369.493 342.756C371.911 344.32 374.613 346.88 375.467 348.445C376.32 350.009 376.889 354.702 376.889 358.685C376.747 365.796 376.462 366.507 363.947 377.6L364.231 423.111C364.516 464.782 364.373 468.622 362.24 469.049C360.818 469.191 358.4 467.342 356.693 464.782C353.565 460.231 353.422 458.667 352 377.316L347.307 373.191C344.747 370.916 341.902 366.791 341.049 364.089C340.196 361.387 340.053 357.262 340.48 354.845C341.049 352.427 342.756 348.729 344.462 346.596Z" fill="white"/>
<path d="M666.597 348.729C668.019 346.88 671.006 344.178 673.423 342.614C675.699 341.191 679.112 339.911 680.961 339.911C682.668 339.911 686.223 340.765 688.783 341.76C691.201 342.756 694.757 345.742 696.606 348.16C698.881 351.431 699.735 354.702 699.735 359.822C699.735 366.365 699.166 367.502 686.934 379.734V419.129C687.077 444.871 686.508 460.231 685.512 462.934C684.659 465.209 682.526 468.622 680.819 470.471C679.112 472.178 677.263 473.6 676.694 473.6C675.983 473.6 674.988 472.036 674.134 470.045C673.139 467.485 673.281 464.64 674.988 459.805C676.979 453.974 677.121 447.858 675.557 378.311L669.868 372.622C664.748 367.502 664.179 366.222 664.179 359.396C664.179 354.56 665.032 350.862 666.597 348.729Z" fill="white"/>
<path d="M443.023 399.218C446.152 397.654 450.703 395.805 452.978 395.236C455.254 394.525 462.649 394.382 469.334 394.667C479.147 395.236 482.703 396.089 487.823 399.218C491.378 401.209 495.645 404.054 497.494 405.618C500.469 408.168 500.763 408.037 507.372 405.084L507.449 405.049C512.143 402.774 516.836 401.92 523.378 401.778C531.058 401.778 534.33 402.631 541.867 406.329C547.698 409.174 551.823 412.16 552.961 414.436C554.383 417.422 555.379 417.991 558.65 417.422C560.783 416.996 566.045 416 570.312 415.147C576.143 413.867 580.125 413.867 585.956 415.147C590.223 416 597.334 418.845 601.601 421.262C606.721 424.391 611.272 428.8 615.254 434.489C618.668 439.182 622.508 443.449 623.93 444.018C625.352 444.587 628.765 445.298 631.468 445.725C634.17 446.151 640.428 449.138 645.405 452.267C653.37 457.387 654.792 459.094 659.912 469.76C664.463 478.862 667.166 482.56 672.428 486.4C677.121 489.814 680.392 493.938 683.379 499.911C685.654 504.605 687.788 511.289 688.072 514.845C688.499 518.4 687.646 524.8 686.508 529.067C684.943 534.614 682.241 539.022 677.406 544.427C673.566 548.694 668.446 552.676 665.601 553.671C662.614 554.667 651.379 555.378 615.112 555.378L614.401 550.4C613.832 547.698 612.552 544 611.414 542.294C610.276 540.445 606.436 537.742 602.739 536.178C598.899 534.614 595.912 532.907 595.912 532.338C595.912 531.627 596.765 529.209 598.045 526.934C599.183 524.658 600.179 520.96 600.179 518.827C600.179 516.551 599.325 512.711 598.188 510.294C597.192 507.734 591.93 501.334 586.525 496.071C581.121 490.951 574.294 485.689 571.45 484.409C566.614 482.418 565.334 482.418 559.361 484.267C553.956 485.831 552.107 485.831 550.685 484.551C549.69 483.556 548.836 481.991 548.978 481.138C548.978 480.142 546.703 477.014 539.023 469.334H518.827C503.041 469.334 497.778 469.76 495.361 471.467C493.512 472.605 490.809 476.445 489.245 480C486.543 486.116 486.258 486.4 481.849 485.405C479.289 484.694 473.885 484.267 470.045 484.267C465.067 484.267 461.796 485.12 459.236 487.111C457.245 488.676 451.272 494.649 446.152 500.338C437.76 509.44 436.623 511.289 436.623 516.267C436.623 519.396 437.476 524.089 438.614 526.649C439.751 529.067 440.178 531.911 439.609 532.907C439.183 533.76 437.191 534.898 435.2 535.325C433.209 535.751 429.938 538.027 427.947 540.16C425.814 542.294 423.396 546.418 422.543 549.405C421.12 554.098 420.409 554.809 415.716 555.378C412.729 555.805 401.636 555.52 391.111 554.809C373.76 553.529 371.342 553.102 365.653 549.405C361.813 546.987 357.973 542.72 355.413 538.311C353.28 534.471 350.862 528.071 350.151 524.089C349.44 519.538 349.44 514.134 350.436 509.014C351.289 504.32 353.849 498.347 356.267 494.791C358.685 491.236 363.805 486.685 367.929 484.267C374.187 480.711 375.467 479.147 376.178 475.022C376.605 472.32 378.027 466.916 379.165 462.934C380.445 459.094 382.862 453.689 384.569 451.271C386.276 448.711 390.969 444.729 395.094 442.311C399.076 440.036 406.045 437.191 410.311 436.338C417.28 434.631 418.276 434.062 418.987 430.222C419.556 427.947 421.12 423.538 422.543 420.694C424.107 417.707 427.947 412.302 431.36 408.747C434.631 405.049 439.894 400.782 443.023 399.218Z" fill="white"/>
<path d="M500.338 492.231C501.618 487.822 503.183 485.831 506.738 484.267C509.156 483.129 514.703 482.276 518.827 482.134C522.81 482.134 527.787 482.702 529.778 483.556C531.912 484.409 533.618 486.542 534.187 488.96C534.614 491.094 535.61 494.222 536.321 496.071C537.032 497.778 539.876 500.196 542.578 501.334C545.281 502.471 548.979 503.467 550.827 503.467C552.534 503.467 555.236 502.045 556.801 500.48C558.365 498.916 561.21 497.494 563.201 497.351C565.619 497.351 569.601 499.627 575.716 505.031C580.694 509.298 585.103 513.991 585.53 515.556C585.956 517.12 584.961 520.534 583.396 523.378C581.69 526.08 580.267 530.062 580.267 532.338C580.267 534.471 581.263 538.169 582.401 540.445C583.539 542.72 585.672 545.28 587.094 545.991C588.374 546.56 591.93 547.556 594.916 548.125C598.899 548.694 600.321 549.831 600.89 552.249C601.316 553.956 601.601 560.498 601.601 566.756C601.743 574.436 601.174 578.702 599.894 579.698C598.899 580.551 595.485 581.689 592.356 582.258C589.228 582.685 586.099 583.68 585.245 584.391C584.534 585.102 582.827 588.516 581.69 592.071C579.556 598.471 579.699 598.756 583.396 604.018C585.53 607.005 587.379 610.276 587.379 611.271C587.379 612.125 583.396 617.102 578.561 622.222C573.583 627.342 568.463 631.894 567.183 632.178C565.761 632.605 562.205 631.467 559.361 629.76C555.236 627.485 552.676 627.058 548.978 627.769C546.276 628.196 542.578 629.618 540.872 630.756C538.738 632.036 537.316 634.88 536.89 638.294C536.463 641.138 535.467 644.551 534.756 645.689C533.761 647.254 530.063 647.965 519.538 648.249C509.583 648.534 505.032 648.107 503.752 646.827C502.756 645.831 501.192 641.849 500.196 638.009C498.774 632.036 497.778 630.614 493.938 629.049C491.378 628.054 487.681 627.2 485.689 627.2C483.698 627.2 480.427 628.48 478.294 630.045C476.018 631.751 473.174 633.031 471.894 632.889C470.472 632.889 465.209 628.907 460.089 624.071C453.689 617.814 450.845 613.974 450.845 611.556C450.845 609.565 451.983 606.294 453.689 604.16C455.254 601.885 456.534 598.898 456.534 597.334C456.534 595.769 455.396 592.214 454.116 589.369C452.694 586.667 450.56 584.107 449.423 583.822C448.285 583.538 445.156 582.969 442.738 582.542C439.894 581.974 437.476 580.409 436.48 578.56C435.343 576.427 435.058 571.449 435.627 564.622C436.054 558.791 436.765 552.818 437.191 551.538C437.76 549.974 440.889 548.125 445.867 546.845C453.12 544.854 453.832 544.285 455.965 538.738C458.24 532.907 458.098 532.338 455.254 526.222C453.689 522.667 452.267 518.4 452.267 516.694C452.267 514.513 455.206 510.815 461.085 505.6C465.778 501.334 470.614 497.778 471.752 497.778C472.747 497.778 476.018 499.2 479.005 500.765C482.703 503.04 485.547 503.609 488.534 503.04C490.809 502.471 494.081 501.191 495.645 500.054C497.209 499.058 499.343 495.502 500.338 492.231Z" fill="white"/>
<path d="M390.827 316.018C390.685 313.884 391.396 311.324 392.534 310.329C393.671 309.333 396.516 308.622 398.791 308.622C401.209 308.48 404.054 309.333 405.049 310.329C406.045 311.324 406.614 314.026 406.471 316.444C406.187 319.431 404.907 321.138 402.205 322.418C398.934 323.982 397.654 323.84 394.667 322.133C392.391 320.711 390.969 318.578 390.827 316.018Z" fill="black"/>
<path d="M491.805 323.698C490.24 320.711 490.383 319.573 492.516 316.586C494.223 314.026 496.214 312.889 499.201 312.889C502.187 312.889 504.178 314.026 506.027 316.586C508.018 319.573 508.161 320.711 506.738 323.698C505.743 325.546 503.467 327.538 501.761 327.964C499.912 328.533 497.352 328.533 496.072 327.964C494.649 327.538 492.658 325.546 491.805 323.698Z" fill="black"/>
<path d="M546.987 321.849C546.418 319.573 547.13 317.582 548.978 315.733C550.543 314.169 553.387 312.889 555.378 312.889C557.654 312.889 559.787 314.311 561.494 316.586C563.627 320 563.77 320.711 561.778 324.124C560.498 326.258 558.081 327.964 556.09 328.249C554.098 328.533 551.538 327.822 550.258 326.826C548.836 325.831 547.414 323.555 546.987 321.849Z" fill="black"/>
<path d="M632.605 325.12C631.041 322.133 631.183 320.995 633.316 318.009C634.881 315.591 637.157 314.311 639.717 314.311C641.85 314.169 644.41 315.022 645.405 316.018C646.401 317.013 646.97 320 646.828 322.702C646.543 325.404 645.405 328.106 644.268 328.96C643.13 329.671 640.428 329.955 638.294 329.386C636.019 328.96 633.459 326.969 632.605 325.12Z" fill="black"/>
<path d="M349.867 358.4C350.009 357.546 351.573 355.271 353.422 353.422C355.271 351.431 357.405 349.866 357.973 349.866C358.542 349.724 360.818 351.004 363.093 352.711C365.227 354.275 366.933 356.835 366.933 358.4C366.933 359.964 365.653 362.524 364.089 364.089C362.525 365.653 360.249 366.933 359.111 366.933C357.973 366.933 355.413 365.369 353.422 363.378C351.431 361.386 349.867 359.111 349.867 358.4Z" fill="black"/>
<path d="M675.272 354.844C675.841 353.991 677.548 352.711 678.97 351.715C680.534 350.862 682.383 350.435 683.237 350.862C684.09 351.289 685.939 352.711 687.361 353.991C688.783 355.271 689.779 357.546 689.779 359.111C689.779 360.675 688.641 363.093 687.219 364.515C685.939 365.938 683.521 366.933 681.957 366.933C680.392 366.933 677.974 365.795 676.552 364.373C675.13 363.093 674.134 360.675 674.134 359.111C674.134 357.546 674.703 355.555 675.272 354.844Z" fill="black"/>
<path d="M490.952 538.026C493.512 535.466 499.485 531.769 504.178 529.778C508.872 527.929 514.703 526.222 516.978 526.222C519.254 526.222 525.085 527.502 529.778 529.066C534.472 530.631 540.872 534.044 543.858 536.462C546.845 539.022 550.685 543.715 552.25 546.844C553.814 549.973 555.378 556.089 555.805 560.355C556.232 565.191 555.663 571.164 554.241 576C552.534 581.973 550.543 585.244 545.565 589.938C542.01 593.209 536.321 597.191 533.05 598.755C529.067 600.604 523.947 601.6 518.401 601.6C512.854 601.6 507.734 600.604 503.894 598.755C500.481 597.191 495.076 593.209 491.663 589.938C487.823 586.098 484.552 581.12 483.129 576.711C481.707 572.871 480.712 566.898 480.712 563.626C480.712 560.213 481.992 554.098 483.556 550.115C484.978 545.991 488.392 540.444 490.952 538.026Z" fill="black"/>
</svg>
