<svg width="682" height="119" viewBox="0 0 682 119" fill="none" xmlns="http://www.w3.org/2000/svg">
<g clip-path="url(#clip0_6283_6670)">
<path d="M59.8166 0.115234C68.5449 0.115234 76.5734 1.65851 83.9187 4.7535C91.3652 7.84849 97.5974 12.1747 102.598 17.7238L90.4629 29.7327C86.7354 25.5667 82.2658 22.3705 77.054 20.1272C71.9435 17.884 66.2005 16.7624 59.8166 16.7624C52.2604 16.7624 45.2946 18.5755 38.9022 22.2018C32.5183 25.7269 27.3571 30.7362 23.4188 37.2467C19.5902 43.6475 17.6758 51.2289 17.6758 59.9826C17.6758 68.7363 19.6408 76.3683 23.5791 82.8788C27.5174 89.2796 32.6785 94.2973 39.0624 97.9236C45.4464 101.449 52.4206 103.211 59.9768 103.211C66.892 103.211 73.1748 101.929 78.8082 99.3657C84.45 96.7008 88.9702 92.9649 92.3772 88.1579C95.8854 83.351 98.019 77.5911 98.7611 70.8699H59.6563V55.3443H115.206C115.847 58.2285 116.167 61.2644 116.167 64.4691V64.6293C116.167 75.7274 113.722 85.4425 108.822 93.766C104.032 101.988 97.3865 108.389 88.869 112.977C80.3514 117.565 70.6701 119.858 59.8166 119.858C51.6195 119.858 43.9115 118.366 36.6674 115.372C29.5413 112.387 23.208 108.221 17.6674 102.882C12.1352 97.4345 7.77524 91.0843 4.57905 83.8317C1.4925 76.4695 -0.0507812 68.517 -0.0507812 59.9742C-0.0507812 51.4398 1.4925 43.5378 4.57905 36.2768C7.77524 28.9146 12.0846 22.5644 17.5072 17.2262C23.0393 11.7868 29.4233 7.57019 36.659 4.5764C43.9115 1.60791 51.6195 0.115234 59.8166 0.115234ZM166.202 33.0975C174.609 33.0975 181.735 34.9107 187.588 38.5369C193.55 42.1632 198.071 47.1304 201.157 53.43C204.244 59.7296 205.787 66.8219 205.787 74.7238C205.787 75.8961 205.736 76.9671 205.627 77.9285C205.627 78.8898 205.576 79.6404 205.467 80.1717H142.572C143.423 88.2844 146.24 94.3648 151.03 98.4212C155.921 102.478 161.462 104.502 167.635 104.502C173.167 104.502 177.747 103.27 181.364 100.816C184.982 98.2525 187.858 95.1069 189.983 91.371L204.193 98.2525C200.676 104.653 195.895 109.882 189.823 113.938C183.759 117.885 176.203 119.858 167.154 119.858C159.177 119.858 152.042 117.995 145.768 114.25C139.494 110.514 134.543 105.395 130.925 98.885C127.417 92.3745 125.655 84.9533 125.655 76.6297C125.655 68.8375 127.358 61.6355 130.765 55.0154C134.172 48.3954 138.903 43.1162 144.975 39.1694C151.148 35.1131 158.224 33.0891 166.202 33.0891V33.0975ZM523.053 33.0975C534.868 33.0975 543.967 36.0323 550.351 41.9018C556.735 47.6617 559.931 55.7744 559.931 66.24V117.312H543.166V107.225H542.205C540.079 110.531 536.883 113.466 532.624 116.03C528.366 118.593 523.264 119.875 517.301 119.875C511.339 119.875 506.237 118.754 501.658 116.51C497.078 114.158 493.52 110.902 490.964 106.745C488.409 102.579 487.136 97.8308 487.136 92.4926C487.136 86.7327 488.628 81.8162 491.605 77.7682C494.692 73.6022 498.79 70.4566 503.901 68.323C509.011 66.1894 514.645 65.1184 520.818 65.1184C525.928 65.1184 530.398 65.5991 534.227 66.5605C538.165 67.5219 541.142 68.5339 543.166 69.6049V65.2786C543.166 59.9404 541.252 55.6732 537.423 52.4686C533.594 49.264 528.644 47.6701 522.58 47.6701C518.431 47.6701 514.493 48.6315 510.766 50.5543C507.038 52.3674 504.061 54.8805 501.826 58.0767L490.011 48.952C493.52 44.0438 498.15 40.1983 503.901 37.4238C509.754 34.5396 516.138 33.1059 523.053 33.1059V33.0975ZM312.61 33.0975C322.191 33.0975 329.317 36.0323 333.997 41.9018C338.678 47.6617 341.022 55.3528 341.022 64.9582V117.312H323.945V67.8423C323.945 61.3319 322.511 56.584 319.635 53.5902C316.869 50.4952 312.982 48.952 307.981 48.952C304.042 48.952 300.585 50.0736 297.608 52.3168C294.631 54.4504 292.286 57.3852 290.583 61.1211C288.989 64.857 288.188 69.023 288.188 73.6107V117.32H271.111V67.8508C271.111 61.3403 269.677 56.5924 266.801 53.5986C263.926 50.5037 259.886 48.9604 254.666 48.9604C250.837 48.9604 247.481 50.082 244.613 52.3252C241.738 54.5685 239.452 57.5538 237.749 61.2897C236.155 65.0257 235.354 69.1917 235.354 73.7793V117.328H218.116V35.6528H234.401V46.8605H235.362C237.707 42.9138 241.105 39.6586 245.575 37.0949C250.044 34.43 254.995 33.0891 260.417 33.0891C266.481 33.0891 271.642 34.5312 275.901 37.4069C280.159 40.291 283.187 43.9173 285 48.2942C287.657 44.027 291.274 40.4513 295.854 37.5671C300.433 34.5818 306.016 33.0807 312.619 33.0807L312.61 33.0975ZM448.545 33.0975C458.125 33.0975 465.252 36.0323 469.932 41.9018C474.612 47.6617 476.957 55.3528 476.957 64.9582V117.312H459.88V67.8423C459.88 61.3319 458.446 56.584 455.57 53.5902C452.804 50.4952 448.916 48.952 443.916 48.952C439.977 48.952 436.52 50.0736 433.543 52.3168C430.566 54.4504 428.221 57.3852 426.518 61.1211C424.924 64.857 424.123 69.023 424.123 73.6107V117.32H407.046V67.8508C407.046 61.3403 405.612 56.5924 402.736 53.5986C399.86 50.5037 395.821 48.9604 390.609 48.9604C386.781 48.9604 383.424 50.082 380.548 52.3252C377.673 54.5685 375.387 57.5538 373.684 61.2897C372.09 65.0257 371.289 69.1917 371.289 73.7793V117.328H354.051V35.6528H370.336V46.8605H371.289C373.633 42.9138 377.04 39.6586 381.51 37.0949C385.979 34.43 390.93 33.0891 396.352 33.0891C402.416 33.0891 407.577 34.5312 411.836 37.4069C416.094 40.291 419.122 43.9173 420.935 48.2942C423.591 44.027 427.218 40.4513 431.789 37.5671C436.368 34.5818 441.951 33.0807 448.545 33.0807V33.0975ZM668.416 76.6972H681.715V92.8805H668.416V117.236H651.271V92.8805H598.716V79.2609L649.829 2.51027H668.416V76.6972ZM524.006 78.0803C516.981 78.0803 511.98 79.5223 509.003 82.3981C506.026 85.1726 504.533 88.588 504.533 92.6444C504.533 96.49 505.967 99.6355 508.843 102.09C511.719 104.544 515.547 105.775 520.337 105.775C524.807 105.775 528.745 104.704 532.152 102.57C535.559 100.437 538.216 97.6622 540.13 94.2467C542.154 90.7216 543.166 86.9351 543.166 82.8788C540.72 81.4873 537.845 80.3741 534.547 79.5139C531.25 78.5525 527.733 78.0718 524.014 78.0718L524.006 78.0803ZM618.103 76.6972H651.271V28.4677H650.31L618.103 76.6972ZM166.362 47.8219C160.619 47.8219 155.719 49.5844 151.68 53.1011C147.64 56.6177 144.924 61.3235 143.541 67.193H188.718C188.507 64.4185 187.605 61.5343 186.003 58.5489C184.409 55.5636 181.963 53.0505 178.657 51.0265C175.47 48.8929 171.371 47.8219 166.37 47.8219H166.362Z" fill="url(#paint0_linear_6283_6670)"/>
</g>
<defs>
<linearGradient id="paint0_linear_6283_6670" x1="-0.042348" y1="59.991" x2="681.715" y2="59.991" gradientUnits="userSpaceOnUse">
<stop stop-color="#3186FF"/>
<stop offset="0.5" stop-color="#346BF1"/>
<stop offset="1" stop-color="#4FA0FF"/>
</linearGradient>
<clipPath id="clip0_6283_6670">
<rect width="682" height="119" fill="white"/>
</clipPath>
</defs>
</svg>
